<mxfile host="app.diagrams.net" modified="2023-11-01T10:46:11.668Z" agent="Mozilla/5.0 (Macintosh; Intel Mac OS X 10_15_7) AppleWebKit/537.36 (KHTML, like Gecko) Chrome/118.0.0.0 Safari/537.36" etag="N0oGbTHVDIyTww7taho0" version="22.0.8" type="device">
  <diagram id="oawVEocFlZCoWyaevU6m" name="Page-3">
    <mxGraphModel dx="1687" dy="925" grid="1" gridSize="10" guides="1" tooltips="1" connect="1" arrows="1" fold="1" page="1" pageScale="1" pageWidth="1169" pageHeight="827" math="0" shadow="0">
      <root>
        <mxCell id="0" />
        <mxCell id="1" parent="0" />
        <mxCell id="i_7ZnJ-4Yy10v311MbCa-1" value="" style="shape=image;verticalLabelPosition=bottom;labelBackgroundColor=default;verticalAlign=top;aspect=fixed;imageAspect=0;image=data:image/png,iVBORw0KGgoAAAANSUhEUgAAAbQAAAIrCAIAAAAIjvsaAACJPUlEQVR4nOy9d3QUV9bufde695+7vjvzvcP1y9jGL/bAIA8YE00SyQYDNniwCcbGxtjGWEZZrZwllBMIZSGhnFBOqFHOCSVyTiJjkkBIKCHpPqMz029Pdyu1urtCn9/q1etUdVX1qd19nrN31a5z/scghUKhUKT4H0xXgEKhUNgIFUcKhUKRARVHCoVCkQEVRwqFQpEBFUeKsjh8uIwHL6atSGEMKo4UZQFlaWoa5PSLiqM6Q8WRoiyoOFI4DRVHirLgrjg2NvaHhwutrZ20tXWcnJyEQuHAwADT5qSoGiqOFGXBUXFsbBzQ1xfY2Ni3trb29fXh3d7ePjMzk+qjukHFkaIsOCqO8Bm1tLQkzgX6CP+RETNSmIKKI0VZyBTHmppXM2cuTEo63TR0Rc/GJmwEnUpPvxQWVq4QybO2PjzGL0I0DW9R4lywBvE1I2akMAUVR4qykCmOTk5xy5dv3LZtH8oFBQ8yMq6gUFj4e3R0PQp1dT1paRdREArvFhc/3rPHevdus/r63tra7uDgopKSJ/goOflsYuKp0tJn5IAoBATkFxU9Qrmh4XVYWEVlZTvKx47dysm56eeXh71QnjpVA+84Tnh4ZUhISUNDP7ZJSTmH7U+c6BN9EVbq6OgimpY4F6zR1dVlxIwUpqDiSFEWMsVx0aI12dnXp02bBQk7cCBLW9vZ31+4dOn6X3+1//jjr6Bfa9ZsxWaGht5ubke3bPl148Zd2H7u3OVGRj6zZy8pK2ubPPmdTZt2Qx+xWVVVB/xQXV23WbM+ys+//+GHS3V0XOfMWQaF1dJymD9/JY4/Y8ac2NjGt956Nz6++aOPPjExOfTZZ99ZWgZ7eaVjEd/7xRc/ki+qru7EMW1tqedI+QdUHCnKQlocIXNvvPEW5AkqZmUVQsRx3bodcAbx6bJlG6Kj68TFEUE3XhCyefNW7NxpqKExF07ilCnTRAcMDS0lTijcTH//4zt26KHs5ZW2d68dxNHDIwWL06fPxjvUE++xsQ0GBl7Q4h9+MF2//tuEhBbipZIvIseMjhba29tLnIuWlpZQKOzv72fEkhRGoOJIURbS4vjLL7aQLUS10C8NjXlEHKF6CHXxKRTw6NEzmpqfo7x58x4ijtbWoS4uCbt3m0PCUEAYTmSOvOAhwg0kgujnd+zzz79H2d4+Uk/PHeKImBqLcC3Je0XFi8mTpxw6dEwgOPDdd0bffScICytvbByAs0m+qOmfd6v7jYwEUEPxu9UCgeDChQtubm73799n2q4UFUHFkaIsJMQRMjR1qgYUiiwuWLDawMAT4gi3EbG2puZn0E1sM2eOJnw6eJEQx6CgwqlTZ6SlXfjkky1r127Hytra7lmzFokfFhEx4vEVKzadONG3efPPK1d+sXjx2qKiRxLiiEAevioCbcguIugNG3bie3FAbG9uHki+KC/vNjlmS8tAeroQcbSuri7JcyQ+Y2VlJVSSupBqAhVHirIYOZUHOghVQpBLFmtru0Qf1dS8EpVF68VXSrzE9xUvi78gnXhJH0e0vcwdpZ+QefbsmZ+fn7Oz8507d5gwKkV1UHGkKIuRxbGg4AGcuNzc1hG2Yfw13OODNTU1xsbGOTk5r1+/Vq1RKaqDiiNFWXA0CXws4gieP38eGBi4f//+W7duqdCoFNVBxZGiLPgtjoT6+noTE5PMzEzp1EgK16HiSFEWjA/FqJrxHNvb20NCQhwcHG7evKl0m1JUCBVHCkUBNDU1wYVMS0vr7e1lui4UxUDFkUJRDB0dHeHh4ba2tteuXWO6LhQFQMWRQlEkp06dMjMzS05O7unpYboulAlBxZFCUTCdnZ2RkZHW1taXL19mui4U+aHiSKEohbNnz5qbmyckJHR3dzNdF4o8UHGkUJTFq1evYmJiLC0tL1y4wHRdKOOGiiOFolygjBYWFrGxsV1dXUzXhTIOqDhSKEoHkXV8fDyibMTaTNeFMlaoOFIoKuLy5cvW1tZRUVGdnZ1M14UyOlQcKRTVARcyKSkJLuSpU6eYrgtlFKg4Uiiq5urVqzY2NuHh4R0dHUzXhTIsVBwpFAbo7e1NTU01NTVtbm5mui4U2VBxpFAY48aNG/b29qGhoe3t7UzXhSIJFUcKhUn6+voyMjJMTEwaGhqYrgvl36DiSKEwT2trq6OjY1BQ0PPnz5muC+WfUHGksAjGR2+UYzxHRfH69evs7GxjY+O6urpRN+a9NdgAFUcKizjMssHDVS8Hd+7ccXJy8vf3f/bs2QibMWIoKo4UCmNQcQT9/f15eXlwIauqqobbhoqjCqDiSGERVBxF3Lt3z9XV1dfX98mTJ9KfUnFUAVQcKSyCVeJYUHDH1fVIZWUlU1NUw4XMz88XCATl5eUDAwPMGopxa6geKo4UFsEScayr6/L2jtASIyIigqkxdR4+fOjh4eHj4/P48WNGDMUqa6gSKo4UFiHd5uvre7dt2zd79pJPP/06K+vaeBs2DmhjEzbevSS0QKQITJkFbmNRURFcyOLiYuJCyhRHf//ja9ZsXbBglYVF0MgnaG0dOsKnZWVt7u7JrLWGyqDiSGER0m3eze3oDz+YohAYWLBjh15p6dO8vNtYTE+/VFvblZx8Nje3NSfnBtaUlj47fvxeZGRtbW03FvFRYuKptLRLGRlXsA0afEhISVVVB3bEIjl4YuLJpKTTKJSUPBEK7xw5UtU0FD9KawGBWeM8evTI29vb09Ozo6ND2lAwy5w5y44du1VX17N48VqcO1bGxjbk598nxsnOvh4QkA9bwYbvvvt+Ssr5hob+hISWQ4eOVVd3kiMEBRXCRN7eGatWbcZmbLaGCqDiSGER0m0e0jZ16gzoY1hY+ZAXk6Gj44rC+vXfZmZeffvtv3zzjf6aNdugoQcP5vzXf/1VV9dt1qxF0M3Jk9/ZtGm3ickhbW3nn3+2Wrp0PbQVooDFadNmVVa2b968Z88em08+2eLsHO/hkYKP9uyxxpHj4iqHkwOWYGtrK20oAwNPS8tgUm5sHCAmwgmuXPmFp2cqMY6Bgdebb049evQM3iGUMN3u3ebYBqaAVs6cudDQ0Hvu3OVWVqHz56+Ezo5sDab/LEqHiiOFRciMFuHC2NtHLlu2YfPmnyXE8b33/tbQ8Bre0OrVX6L979plgo9+/NHCzy9vypRpKB84kEXEEQoI9xC6iZVbtvwaEVE9adKfd+40/Pzz76GPEMeffrIkX8daObh69aqDg0NAQMCrV6+kDQWNs7ePIGX4zjhZCBzKOTk3ly/fCOPALFhct24HdHDWrI9QRsHY2BddyMKFH0MWbW3DsRKeZmxs49atWiy3hgqg4khhEdJtXkvLgbR5+Hrwd3x9c3/5xRaLGhpzIY5QQAgBGvO2bfvQ/vGOj776ai+iRdL+ReIYHFxUXv588eJPsXLr1t9iYk5Mnz5bKLyLyNrFJQHiCM+LfCMLA0nE0TExMebm5i0tLcMZKjq6fsWKTegqhnqOb3x8Mj/8cCnKSUmn4VnDOL/9th+LkMKUlHMwDrxLDY15VlYhISElkFF0HgLBAWwAXxs9B/oP1lpDZVBxpLAI6TYPRwaKNmeOJsI9J6e4goIHEDW4kGjYWVnXEFavWbN1yZJ1UEO0fziSq1Zt/uKLH7EjcRIhjjo6LtLiGB/fDKcJGy9YsDooqHBIHL3YeQuitrbWxMQkOTlZfBZDaUNB7KBoiJ1hqB07dEmgDZ9xwYJV6AlgnH37nP4ljufhPyKm/vLLX+CAo0dBTwPjwPuGE419YXP0Q6GhpSy0hiqh4khhEcNlqFRUvBCVGxr66+p6SBkeUH19L9agTJwjcjdmjC8ch+wrtZ4VySsPHjzw9vZ2dXW9devWGA0Fa4hboLa2S+ZmUFJiw5qaV+LrRdvjU3Lhkj3WUD1UHCksYrzpe/r6HqIy4kc/v7xx7T7qi6lnQnp7e7OysgQCQWlpqUT6N4GRhFBPz7igoCDVW4MpqDhSWARLksCZFccLFy5YW1sfPnx4hOHLGDGUr2+Gk5OTKk3BLFQcKSxCzcXxxYsX4eHhVlZW586dG3lLRgwVFFRgaGioGlOwASqOFBbB+OiNTI1giNi5vLwccXRmZiZi6lG3Z8oa+vr6r169UoFB2AAVRwqFYe7cuePm5ubl5XX//n2m6zIK+/fvv337NtO1UBFUHCkUxuju7k5JSTExMamurpZ544VtBAYGnjx5kulaqAgqjhQKM5w6dcrCwiIqKurly5dM12WsJCUlFRcXM10LFUHFkUJRNc+ePQsKCrKzs7ty5QrTdRkfRUVFycnJTNdCRVBxpFBUR39/f2FhoUAgyMvL6+vrY7o646alpUV9Uh2pOFIoKuLGjRtOTk6+vr6PHj1iui5ycuvWLfVJdaTiSKEonc7Ozvj4eFNT04aGBqbrMiE6OjrUJ9WRiiOFolwgiJDFhIQEfmQIqk+qIxVHCkVZ/P777wiiEYfevHmT6booDEdHRzWZY4uKI4WiePr6+nJzcwUCQVFRUX9/P9PVUSSBgYGnTp1iuhaqgIojhaJgLl++bGtrGxwc/OzZM6bronjUJ9WRiiOFojDa29sjIyMtLCxOnz7NdF2URWFhoZqkOlJxpFAUwMDAQHV1tYmJSWpqqviQ3fyjubkZTjHTtVAFVBwplIly7949T09PNzc3dbhT0dra6uzszHQtVAEVRwpFfnp7e9PT042NjSsqKjgxcsTE6ejoMDIyYroWqoCKI4UbsHA8x7Nnz1pZWR05cuTFixeqMgMr0NfXp3PIUChs4TATY18PJ45tbW2hoaHW1tYXLlxQrRlYgZqkOlJxpHADlogjYufS0lKBQJCdnc3FkSMUgpqkOlJxpHADVYpjY2N/eLjQ2tpJW1vHyclJKBSS64m3bt1ycXHx8fF5+PAh0/ZgEjVJdaTiSOEGKhPHxsYBfX2BjY19a2srfEO829vbZ2RkpKammpiY1NXVMW0J5lGTVEcqjhRuoDJxhM+opaUl8e3Qx4SEhI6ODkbOnW2oSaojFUcKN5AWx/37Y2bNWjRnzrKtW7Wys69jAxubsImLI6JpeIsS34416jOO4aioSaojFUcKN5AWRyMjH6KGXl5p27btO3AgS1vbGYuFhb9HR9eTberreyMjawoKHhQXP87NbS0ra8PKxMRTJHwOD6/ESpRTUs7l5NwgZR0dXek7LVijq6vLyImzEDVJdaTiSOEGMsVx/fpvzcz8V6/+0s0tiYijv79w6dL1v/5q//HHXzU0vP7ww6V6eu7Tps1ydU3cs8cmMLAAO86a9RGUceHCjw0MPOfPX5mQ0LJo0ZpPP/3a1zcXn9raUs9xdNQh1ZGKI4UbyBTHL7/8xckpFmH1559/T8Rx3bodycln8emyZRvgUe7YoYuylpajhDjGxJyYOnXGzp2GS5as09FxWbx4LTxHctjoaKG9vb3Et2tpaQmFQkZOnJ2oQ6ojFUcKNxghrEawPHnyO0QcoXcIlrFy3rwVUVG1X321F+Xdu80gjpBIH5/MysqXkyZNTk+/pKn5mVB4F3IZFlYOcSwvf/6vu9X9RkYCqKH43WqBQKAmTweOkYCAAN6nOlJxpHADmeI4Zco0BM7vvfc3a+vDEEf4gHAbESND+PbutcM227btgy85ffpsiGNERDUKW7b8Om3aB/ho+3btNWu2zZ27PDe3VVwc8WppGUhPFyKO1tXVJXmOPBuwduIkJiaWlJQwXQvlQsWRwg3GlcpTW9slVu4WCA5AHEm5oaFf9FFNzauRjzPys9XqTEFBQUpKCtO1UC5UHCncYCJ5jsHBxbGxjXLsSMVxOJqbm0NCQpiuhXKh4kjhBix5tppCUIdURyqOFG5AxZFVvHz5kvepjlQcKdyAheM5qjl6enr8TnWk4kihUOSB96mOVBwpFIo88D7VkYojhUKRB96nOlJxpFAo8sD7VEcqjhQKRR54n+pIxZFCocgD71MdqThSKBR54H2qIxVHCoUiJ/xOdaTiSKFQ5MTBweHu3btM10JZUHGkUChy4u/vf/r0aaZroSyoOFIoFDlJTEwsLS1luhbKgoojhUKRE36nOlJxpFAoctLU1MTjVEcqjhQKRU5u3rzp4uLCdC2UBRVHCoUiJ+3t7QKBgOlaKAsqjgxAxyVULNRuDKKrq9vd3c10LZQCFUcGUP2g1vxu5MqzJ7/tphB4nOpIxZEBqDgqFiqODMLjVEcqjgygSnFsbOwPDxeamFiKpmDm3+T0SrJnQcEdV9cjlZWV/B7veoLwONWRiiMDqEwcGxsH9PUFNjb2ra2tfX19eLe3t8/MzOSZPircnnV1Xd7eEVpiRERE8Pgh4onA41RHKo4MoDJxhM+Ihi3x7dBH+I+MnLiSULg9JZRRpI9Mnygb4XGqIxVHBpBuzO7uybNmfTRnjiZeGzf+MFyjxY42NmFjb+TW1k7wFiW+HWsQXzNy4kpC2p6urolD9lw2d+5yT89U0Xpz88CIiGqJjb280nfvNhctIpqWVkYC0yfKRnic6kjFkQGkG7OlZbCJySHRYkbG5cLC31GIiqpraOjPy7sdFFRYVdVx4ECWtrZzbm5rWVkbPk1MPFVb252VdS0yshYFvIKDi0pKnoiOo6Oji2ha4tuxRldXl5ETVxLS9jQz84cOogAz/t//+2Zx8WOh8M6RI1Xp6ZfS0y/n5NzER6WlT2FJFJyc4qKj60X7xsVVUnEcOzxOdaTiyAAyxXH9+m/s7I7ghTYcGVmzYMFqe/uILVt+TUk5P3PmQkNDbzhB3t6ZEMc9e2wCAwuwF5yj7Ozrkyb9eetWLTR7bGBk5DN79hIinXjZ2qqp5whx1NV1y8+/j+5EQ2Oeh0fKu+++v2eP9d69ds7O8R999Am2+ekny4MHszdv3gN7fvLJFqyn4igffE11pOLIAMOI47f29pF4kbjvhx9Mp0yZVlPzCrJoaxuONWjqMsVx8eJPyRHmzVuxc6ehhsbcgIB8ctjoaKG9vb3Et6ORC4XC5OTkFy9eMHL6CkemOMIOa9Zs1dJyQLcBcYQUYj3E0d//+PLlG+E8wnrl5c/RtcBon3/+PfSRhtXy4eDgcO/ePaZroXioODLAqGH1iRN98+evROtFuAePRiA4gJXYwN39KMRRS8vRxyezsvLlpEmTIY7r1u3Apy4uCbt3mwuFd1HIyLhCjtPY2G9kJECrFr9bjSCop6cnJSXFyMiIHxI5QlhNXhBHAwNPkTi6uyevWLFp1y6T+vre6dNnw2iJiSdhN3pDRj74mupIxZEBZIrj22+/R27ILF68Fv7Ovn1OWVnXZsyYk5//YPXqL+HX7NihiyBRR8cFriWaNCLuadM+EIljZWU7tlm7dvuyZRtqa7tFR25pGUhPFyKOFuU59vf3k2pAFvkhkWMTRy+ROMI+f/zjn1JSzmGNsbHvqlWbFyxYHRRUKNqepvKMi4SEBF6mOlJxZAA5Uk9qa7v+fbG7oaFfejOE4TJ3H+FJDx5I5ARTeerqemQak9jNwsLi0aNHTJ8iq8nPz09NTWW6FoqHiiMDsPDxQU5LpFIfHwwNDa2vr2f6FFlNY2MjrMR0LRQPFUcGYKE4EjgqkUoVx8LCwqSkJKZPkdXcvHnT1dWV6VooHiqODMBacSRwTiKVKo7Xrl3jZctXIHxNdaTiyACcGM9RJJFHjx5luUQq1W69vb26urp4Z/osWQ0vUx2pOFJGgkMSqTzgOcJ/ZLoWrIaXqY5UHCmjo+YSmZSUVFhYyHQtWA0vUx2pOFLGitpKZH19PS/vxioQXqY6UnGkjA81lMhHjx5ZWFgwXQtWw8tURyqOFHkQl8jnz58zXR2lIxAI2tramK4Fe+FlqiMVR4r8qI9EBgYGNjc3M10L9sLLVEcqjpSJog4SmZeXl5aWxnQt2AsvUx2pOFIUg0gik5KS+CeRFy9e9PLyYroWrIZ/qY5UHCmKBB5Eamoq/ySyq6tLT09PNKARRRp7e3uepTpScaQoHl5KpKOjo/Sw6hQRfn5+Z86cYboWioSKI0VZ8EwiY2Njy8rKmK4Fe4mPj+eZfag4UpQLbySyurqaDgY+Avn5+Ty7Z0XFkaIKxCWSowmD9+7ds7W1ZboW7IV/qY5UHCmqg9MSOTAwYGBg0NHRwXRFWMqNGzd4lupIxZGiargrkb6+vjy756BAXrx4YWxszHQtFAkVx2FhZNRF9oznqGzkkEjG7ZY1hFLMwQt0dHR6enqYroXCoOI4LIdVPl43S0YCVyWQyLS0tDFKpOp/EQm7wW2E86hEc3AcnqU6UnEcFiqOKmOMEsm4OHZ0dBgYGAwMDCjdItyEZ6mOVByHhU/i6OubWTnEnTt3mLbrsIwqkSr7RRob+8PDhdbWTtraOmSyb5Eg2tra8sk5Uiw8S3Wk4jgs/BBHzs1PP4JEquYXaWwc0NcX2NjYt7a29vX14R3RYmZmJtFHWK+6upoh27AdnqU6UnEcFn6Io4QyivSRaeuOgkyJVM0vAp8RJpKoD/QR/iMK8IxiY2NVbQ6OwLNURyqOwyKzKdbUvJo5c2FS0ummoQtSNjZhIzSz9PRLYWHlCm+9o36v6FVQcEdaGQlMW3dMiEskvF2Zv4iPT+bixZ/OmbNs+3bt2truiZsX0bT0M9RYg/iaFBwdHZkwBgfgWaojFcdhkdkUnZzili/fuG3bviHpeZCRcQWFwsLfo6Prm/4Rw/akpV1EQSi8W1z8eM8e6927zerre9Fog4OLSkqe4KPk5LOJiadKS5+hjPVZWdeOHj2TmXkVsouIraGhn6wX3z4v73ZsbAM+Cg+vrK3tOnAga98+p8jIGqIFogMiHsQGubmtotrGxVUOJ46cw9bWVvoXgVnQV6WknEdZT8/d0NAbRhMK7xw5UoU1GRmXU1MvoFBa+hQ2JN0VDAiLwUo5OTfIQcStjZeOji6iaYk/A9bo6uqi0N/fr6enx+brEgzCs1RHKo7DIlMcFy1ak519fdq0WZWV7RApbW1nf3/h0qXrf/3V/uOPvzp27NaaNVuxGVqpm9vRLVt+3bhxF7afO3e5kZHP7NlLysraJk9+Z9Om3ZAzbJaTc/ONN9767bf977wz/auv9mK9uXlAfv598e3ffHPqDz+YQgLWrt0Otf3iix/xvViJvbASDZscMCHh5MKFHxsYeM6fvzIhoWVUcWTaumMCjS05ORmeI967u7ulf5G9e+2MjX1RQM+BTujEiT4Pj5R3330fhoJW/v3vP23d+tsvv9h6e2fo6Lhis/Xrv0U/9Pbbf/nmG/01a7bhN5KwNraxtR3JcwReXl4XL15UuTG4AZ9SHak4Dot0U4TMQctMTA59+OFSK6sQIo7r1u2AJ4JPly3bEB1dJy6OCH7xsrQMnjdvxc6dhhoacwMC8qdMmSY6IMQRWoYCGmpi4snY2MatW7Uktn/77fcaGl7r6rrZ2R2Bbzhr1kf4Xsgl9sI7pJkcMCbmxNSpM7DXkiXrdHRcuB5Wi8uiaBov6V8EGufmloTCjh16+FEWLFgFcfzpJ0usgfUglxDNv/71QwlxfO+9v8Gk8BxXr/5SwtrYJjpaaG9vL1EfWIxccwSI9PPy8lRqDu5gZ2d3//59pmuhGKg4Dot0U4QPAlclJKTEyytNQ2MeEUe0KwSz+BRtDAGypubnKG/evIeIo7V1qItLwu7d5gi0UUAYDnUTF0f4gyhAYaG88fHNEEeZ28MlRLNHgYjjrl0m5FvwjWQDBIyamp9hr8DAAvELnZy7ISNTFgnSvwhMgT4JIkguLxBxhK2wCD+6vPx5XV3P9OmzfX1z8dsRxYQ4ojuBx42uaNu2fRLWbhrK4zEyEsBK4nerBQKBKJunubk5MDCQCdtwAD8/v7NnzzJdC8VAxXFYJJoivLapUzUqKl6QxQULVqMRQhzRJhFrQ5igm9hmzhxNuCdosRDHoKBCeHNpaRc++WQLRBAr0SZnzVokLY7r138DR4aIIwJ26e0lxPGDDxZjA0TTQ2v+ecDt27XhgSJIFL/syKFUnhFkkSDzQse+fU7wBGGEd96Z7uWVPiSOXkQ3Fy/+FD8NVK+g4AEkcvPmn9GlZWVdQ1gNBx8udkJCi4S1yTFbWgbS04WIo3V1dUmeo/gY4G1tbfybL0VR8CnVkYrjsIycOAIdNDcPJO1w6KJ+l+ijmppXorJovfjKsbxG3V7mndnh9mL5EzKjyiJhuF8Ev4Wo0xJ/IXYmTuVQuR9eJCmjgyER91jshipJB9EWFhaPHj1SslU4yfHjx3mT6kjFcVhGFkc4I4hqxX00Nr9YK45jlEWCovIc9fU9xm638+fPe3p6StQkNDS0vr5eaVbhMA0NDYcPH2a6FoqBiuOw8CMJnLXiOC5ZJDDybHVfX5++vn5nZ6d4TQoLC5OSkpRjGG5z/fp1Nzc3pmuhGKg4DgsVRyUhhywSmBp4IiAgoLGxUbwm165d41O2swLBD2piYsJ0LRQDFcdhYXwERuWNS8gUcssigSm7lZWVRUdHi9ekt7dXV1cX74qyDJ/Q0dHhh2WoOFJUwQRlkVkeP34s7Q3Bc4T/yEh9WA5vUh2pOFKUC6dlUQQa/O3bt8XXJCUlFRYWMlUfNsObVEcqjhRlwQ9ZJOAURE/IEOrr6/k0Ao0C4U2qIxVHiuLhkywSzp075+XlJb7m0aNHFhYWTNWHzfAm1ZGKI0WR8E8WCTITegQCAbdmT1QNvEl1pOJIUQx8lUUR/v7+TU1N4msCAwObm5uZqg9r4U2qIxVHykThvSwSSktLJRJ68vLy+BE/KhbepDpScaTIj5rIIuHx48empqbiay5evChxIZJC4EeqIxVHijyolSyKkEjo6erq0tPTEx+wh0LgR6ojFUfK+FBPWSRIJ/Q4OjpKDxtOOXToEA9SHak4UsaKOssiQTqhJzY2lh85fYolLi6uvLyc6VpMFCqOlNGhskggCT2vXr0SramurmbzsOpMAf86PT2d6VpMFCqOlJGgsiiBRELPvXv3bG1tGawPO2loaAgLC2O6FhOFiiNFNlQWZSKR0DMwMGBgYNDR0cFglVgIP1IdqThSJKGyOALSCT2+vr5nzpxhqj7s5Pnz5zxIdVSWOKrVMIXywcLxHKksjgXE0eIJPVlDMFgfFgKHmgepjkoUR3Ub4Hq8qMZEYzQUlcWxc/ToUfGEHriNcB4ZrA874UGqIxVHxmCJOFJZHC/nzp3z9vYWLXZ0dBgYGIhmtaYQeJDqSMWRMVQpjr6+mZVD3LlzR1QBKovygWhRIqEHgfa9e/cYrBIL4UGqIxVHxlCNierqury9I7TEiIiIePToEZXFieDv7y8+Hg9MWl1dzWB9WAgPUh2pODKGakwkoYwEHR0dKosTobS0NCYmRrRYVlYWGxvLYH1YCA9SHVUnjqGhpcbGB6k4ipApjvb2ETNnLtTQmPfzz1b19b0Sn27YsBPv1taHh95DR7VPQcEdaWUkMH323Aaut3hCT2trq6OjI4P1YSE8SHVUnTgeOJC1e7dZScmTgoIHiEIKC38vLHyYmHgSHzU09CcktBw6dKy6uhOLFRUvYmMbs7Ovk0Vsk5R0Wmbjd3IKvnz5spJOQdlImwin/MEHi/PybpeXP//iix9dXRNLS59iER+lp1+qre0KD688duzW1KkaMMi7776fknIeH+Xk3MT6xsYB2FYovHPkSJXogHFxlVQclYStra3oAm5/f7+enl5XVxezVWIVPEh1VLU4enmlzZgxZ98+pz//+b927TJZuPDjyMjab77R373bfM8em82b90AF5s5drqXl+Kc//efRo2ewBus/+WSLs3O8tDj6+x8TCAQXL15U0lkoFWkT6ei4WFmFkDLOffnyjd7eGTo6rlhcv/7bzMyrs2Z9hG7jrbfeRUfy5ptTAwLyzcz8IaM7dxp+/72xh0cKFHPPHmsqjiogKSnp+PHjokUvLy+O/g+VBA9SHRkQx+++E2Dxvff+VlfXg9jQxiYMHpCxse+mTbuhlXp67vCYsMHq1V/GxJyYNOnPaPmff/499FFmWH3t2jXo4/nz55V0IspD2kToIUR9QEbGFZhIWhxRFn/X0Ji7fbv2t98aTJkyDeL400+WNKxWDRIJPWlpaXl5eQzWh4XAuX7w4AHTtZAfBsQR8idq21BGa+vDGhrz4DGFhJTMn7/SwSGKXJqcPXsJYu3p02cLhXcRWbu4JAx3zfH69evQR84lVUmbCMEyvMX6+l4DA88tW379+msdX9/cX36xJSIoEseZMxcSAyKURneSmHgKsTaMBnHEjhLHlHlDhg4kM3EkEnqam5sDAwOZrRLb8PX1RRfCdC3khwFx1Nf3GGrbi4g44vXll7/AM9q2bR8koLz8OfzEVas2v/32XxBiw6NEecGC1UFBhcOJI7h586axsfHp06eVdDrKQOYNmV27TBA1/+UvM995Z/revXYFBQ/QPWze/DP6j6ysa0Qcp02bBY973bod33yjj/haU/MzSKqpqd+QOHpJHFBmKg+9OqYQxBN62tra0EMzWx+2ERcXV1FRwXQt5IctqTw1Na9IAaG0vX1kYeHvM2bMISsRfTc09MvcS/xudWtrK/Tx5MmTSjojhTOcieA51tZ2NQ3d328aulsFC4hvcOJEH15wG8l6bFBb2z2yeTl9W5+1SCT0WFhYPHr0iMH6sA2upzqyRRzFW/6+fU7wlQIDC0bdWKLN375928TEhCuzZbLk8UGK3Egk9ISGhtbX1zNYH7Zx4sQJTqc6sk4cJ9jm79y5g/9rY2Ojks5LgVBx5AHiCT2FhYVJSUnM1odVXLt2zd3dnelayA/fxHFwaHBm6GNDQ4OSTk1RUHHkAeIJPdACV1dXZuvDKtra2iTGvuQW/BzP8f79+/hV6urqlHR2CoGF4zlSxsvZs2dFCT29vb26urqczuxTLFxPdeTtSOAPHz40NzevqalhuiIUPkMSekR3/+E5wn9ktkqsgtOpjrwVR/D7779DH6uqqpiuCIXP+Pn5ie4BIsouLCxktj6sgtOpjnwWx8Gh+4kWFhacTraisJySkhJRQk99fX1oaCiz9WEVnE515Lk4Dg7NiAR9pDOvU5QECVBImXTGzNaHVXA61ZH/4giePn1qZWVVXFzMdEUo/MTGxkaU0CMQCNra2pitD3vgdKqjWogjePbsmbW1Nb0eRFEGSUlJ+fn5pBwYGMiVxxBUAKdTHdVFHAeHsq5sbW1Ff2IKRVGcPXvWx8eHlPPy8tLS0pitD3vgdKqjGonj4NAAnHZ2duLzalIoE0c8oefixYteXl5M14gtcDrVUb3EcXBoyj3oY25uLtMVofAKUUIPJFJPT6+/v5/pGrEFhGsPHz5kuhbyoHbiCNrb2x0dHbOzs5muCIU/iCf04N/V2trKbH3YA3dTHdVRHMHLly/xD87MzGS6IhSeIJ7QExsbS1PHRMAaHE11VFNxBB0dHU5OTvTaOUVRWFtb3717F4Xq6mo61rqIvLy8jIwMpmshD+orjqCzs9PZ2TklJYXpilD4gCih5969e7a2tkxXhy3U19eHh4czXQt5UGtxBK9evXJ1daXD8FEmjiihZ2BgwMDAAKEJ0zViBdeuXfPw8GC6FvKg7uI4OHR70d3dPSEhAf9pputC4TDiCT2+vr5nzpxhukasgLupjpLiqOJBBlkyTCH+0Ojc4uLimNJHrhiKMjJ+fn4tLS0oZA3BdHVYAdqUtrZ2X18f0xUZNzLEUWXDU7NqgOvu7m4vL6+YmBhG9FHZZqfiqBqKi4tjY2NRgNsI55Hp6rAFjqY6UnH8b3p6enx8fKKiolSvj1Qc+QEZYnlwKBfCwMCAXqghcDTVkYrjv9Hb23vw4MGIiAgVP+FAxZE3WFtb37t3b3DIXSIFCkdTHak4SgJ9REcXHh6uSn1Uttl9fTMrhxCNrEVREomJiSShB11sdXU109VhBRxNdaTiKIO+vj4/P7/Dhw+rTB+VZ/a6ui5v7wgtMdBoRXOeUBTOmTNnSEJPWVkZuf5I4Wiq4+ji6OmZOmvWR3PmaOJlbh6wY4duaekz8Q3Wr/9WVDY3D0R/OUJb3bXLJDa2gZStrQ/b20d8952R6NMffjAVCu+i4OWVvnu3OVPiODikjwEBASEhIa9fv1bSV4gjbfa1a7fD4Boac/H+9dc6w1mgrKzN3T15BBNJKKNIH1VwUuqJKKGntbXV0dGR6eqwAo6mOo4ujtbWocbGB0WL0dH1dXU9tbXdwcHF2dnXsQbSCUULCytHOT39UlHRIxRycm6Gh1c2Ng6UlDwRCu8cOVJFdofqQV5JeebMhceP3yNaiUYeH9+8bt0Ockwnpzh8EdmsqqoDBz9xok+V4gggi0FDqCALYTjPcerUGaKyyKQZGZcLC3/HmqioOthz1arNpaVPsR6f5ua2iu9eUHBHWhkJyj4jdebQoUMtLS0IO/T09KiTPsjZVMcxieOGDTudnGLxqqx8qan5OeRvxYpNP/9stWjRGviJkydPgWuD9TY2YXv32vn7Hzcz8//iix937jT8/ntjD4+Ud999f88ea3K0+vreadNmQeni4prgckI3P/74q8zMqx9+uPSXX2z/+Mc/QRw3b96zZ4/NJ59scXaOz8u7PWvWIl1dN7xDkSXq5uQUnJiY+PTpUyVZB/9vOI9wIZWtj6OKo7hJIyNrFixYDad7y5Zf4X3Pn78Smrhw4ccGBp4oJyS0iHaPi6uk4qh6iouL4+LiUPDy8rp48SLT1WEejqY6jkkcEeLhHa/KynaIYFbWtQ8+WIyPsFhR8eKdd6ZD8rAjAmQijggGt2/X/vZbgylTpkEcf/rJUiKy9vXN/eYbffieRByNjHzgKuKjZcs2JCefnTTpz1CBzz//HvpobOzr4BCFj6DFBw5kSdQtOLgoIyPDyMgoKipKSYlU0MfDhw/7+fkpdcDOUcVR3KTk+gMKNTWv4G5v3aoVE3MCW8JoS5as09FxoeLILKKEnrS0tLy8PKarwwpsbGw4l+o47rAa4ohYePbsJSgjIg4KKkRYjTJcSDRdIo7wYhITTx07dgs7Qhzh0YgfMCXl/Pr130BeEQkScXR0jLa1DcdHc+cuR8w4ffpsxOmJiSddXBLgrkIf8RGcU3yXzLD61atX+AuamJiEhobevn1b4TaCPoaHh/v6+ipPH0cVR3GTwu+GhwizR0fXQxzhP6anX9LU/AxGCwwsINc3aFjNLCShp7m5OTAwkOm6sIKDBw+eP3+e6VqMD3nEEWE1fL1Vq/6O4A7qhoBXQhwPHTqGtrp8+UZTU78hcfSSOOacOZrEwSHiWFbWBicRwfvUqRo5OTeghqtWbcbBoYZDvupniOLXrdsBMR3hmmNPTw/CGfTY8PKuXLmiWDMhLoiIiMAPjG9R7JEJo4qjuEm1tBz27XOC/z5jxpzs7Otvvjk1NLQUfuWaNdvQu0hcdpR5Q8bQ0JBz3Ti3IAk9bW1tAoGA6bqwgpiYmMrKSqZrMT7kT+Wpre0a4dOGhn7pS4SjHfC/t6+r68ERRv0u6Rsyr1+/rq6uhg/v6el59uxZBVoK+ojg3cfHp7u7W4GHJYzF7MOZFLYi3QaibFmfykjlKS8vNzY2Vqx9KOKIEnosLCwePXrEdHWYB7Ed58aW5meeI4SssbFx//79Tk5OTU1NinqKC8dBB+jl5aXwW5Cqf0Lm+vXr8LKPHz+u2BOhEEQJPaGhofX19UxXh3m4mOrIT3EUgQ7cw8PD1tYW7qRCMhahj3FxcXBLFauPjDw+iKDPzc0tLCxMSdcK1ByS0FNYWEhHCwVXr17lXKojz8WRcPnyZfxTEeCUlJQo5KZKYmKiu7v7q1evJn4oAlPPVvf19UVFRcG/fvLkiaLOhUIgCT3Xrl1zdXVlui7M8+zZMzMzM6ZrMT7UaDzH1tbWkJAQExMToVA4cb/v6NGj+NN3dnZO8DgEZg2FZmxqaoouRCHnQiE8fPgQ/TE6Y11dXY5O3KxAuJjqqHYjgT948CAyMtLIyCgzM7O9vX0ih0pJSXFxceHHaPgXL15Et1FaWsp0RXiFlZXVvXv30InCf2S6LszDuVRHtRNHAqJIhMaQyKSkJDj8ch8nPT0dMenLly8VWDemgE32798fExPDre6dzeA/VlBQgP9YYWEh03VhHs6lOqqpOBJevHgBdYNERkdH//777/IdBB6oo6PjBJ1QltDd3R0SEuLh4QHLMF0XPnD69OkDBw7U19eHhoYyXRfm4Vyqo1qLI6Gzs/PYsWPGxsaHDx+Wb7jD3NxcOzs73ghKXl6eubn5zZs3ma4I5+np6dHX1797966FhQXTdWEezqU6UnH8J3CaioqKzMzM/P395bhCJBQKoY/Pnz9XRt1UD1we9Ba1tbVMV4Tz+Pr6njx5UiAQtLW1MV0XhuFcqiMVx3+jr68Pnr+1tbW3t/d4Z73Iz8+3tbXlTRt48OABTic5OVnFM0bwDPS4cXFxgYGBzc3NTNeFYTiX6kjFUQaQg4aGBkdHR2dnZ/ynx/6ATWFhIYR1Ind4WMWrV6/8/PwOHjzIjzvyjIA+BjE1Isq0tDSm68IwnEt1pOI4LNBERJfu7u6Il2tqasboQBUXF1tZWSlviEkVAyOkp6fjjO7evct0XbgKrFddXe3l5cV0RRiGc6mOVBxH59KlS76+vuj/S0tLx5LNW1ZWho0fP36sgrqphsbGRmNjYxoYykdiYiI8Rz09PXqBAnGV3GkhqoeK41i5efNmcHCwiYnJ8ePHR33ApqKigmfDsdy+fdvS0jI7O5vOxTxeSEKPo6Nja2sr03VhmIMHD164cIHpWowVKo7j4/79+xEREQKBICsra+Tc76qqKnNzcw71k6PS3t6O2DAwMJDOizIuSEJPVFQUQgqm68Iw3Ep1pOIoDwiZ4+PjjYyMkpOTR7g9XVNTA33k1iNTI4PAEEGinZ0dn0RfBfj6+iYlJdFJH48dO8ahVEcqjvLz4sWLtLQ0SCT6w+HEoq6uztTUFP6miuumVOAUm5iYjDfVSZ0pKio6fPiwra0t0xVhGDSHI0eOMF2LsULFcaJ0dnbm5uYi0A4LC5P5gE1DQwP08d69e6qvm/K4du2amZlZfn4+0xXhBiShx8DAQM2Toq5cueLp6cl0LcYKFUfF0N3dXVhYCL0ICAi4fv26xKcJCQn6+vryPZvIWtra2lxdXcPDw+l4XGPBysrKw8PjzJkzTFeESZ49e0bmZeQETIqjisdzVAF9fX0VFRVoBj4+PqK7ctBKHR0dLS0tPT09mZMjsm3gy7EDWYyIiHB2duZN3rvyQAd58ODBrKwspivCJNxKdWRYHFUzEriK6e/vr6+vd3BwgGPV3NyMgmhyK+ijdD7HxO3ArKGKiopMTU0VPuMjzzh9+rSTk5Ovry/TFWEYDqU6UnFUFugkT506hb+CxLSo0EeJAW+4Lo4AbrKJiUl5eblSv4XTkIQeAwMDNU8U5VCqIxVH5eLh4SE9bbSurq74dUmlimNjY394uNDExBJfCs9FKBQqqXE+fvzY0dExLi6OK0GT6oHbaG5uzrNbc+OFQ6mOVByVyMuXL3/77TdpcST6KBoYTXni2Ng4oK8vsLGxRywPzcK7vb19ZmamkvSxu7s7ODjY09OTN0NbKpaioiIyESbTFWESDqU6UnFUIqdPn5apjAQdHR1ynU554gifEV8kUSvoI/xHJZ0yZDc3Nxf+EX1UTpr79+8bGRnFxsYyXREm4VCqI+vE0ccnc/HiT+fMWbZ9u3ZtbTe2sbEJy8i48sEHi11cErgljhUVFSOII9DW1kaQJW0HZ+f4BQtWw+9DOS/v9owZc4qKHsmUvw0bdhYW/v7dd0YyP7W2dpIWKaxBfK3UEz916pSxsTGdzF4aMzMzNU8F51CqI7vEMTa2YebMhSkp51HW03M3NPQuKHgAZdTSctiy5deKihcS2zs6BoysPuwH8bW0HUxMDv3hD/8RGVmDspGRz//+3/9ffv59lBMTTyYlnSbb5Oa2ZmVdmzXro9raLtgNa2ArX9/czMyrouPo6OhKXwHEGnypsn9ceEk2Njapqal0KBpx4uLi0COq88PpHEp1ZJc47t1rZ2zsi0JDQ399fe+JE30HDmRpazt/9dXedet2oPHzzHPct28fRESmOOKUd+40RHnFik1Ll66HOG7evGfPHptPPtkCvxJmWb584zff6E+aNFkovPPxx19BN+fNW2FrGz5t2qzy8ufkOLa2w3qOERERCHCUenGws7PTdwhFze7NA+BTGxoaXrx4cZCDc8QrpLlxKNWRXeKI1u7mloTCjh16H364dMGCVUQcIQfQC/5dcyT3ZGSKo7195OzZS+A1wxTQQTiJkyb9GXL5+effQx8RTaemXsCWU6dqEHGsru50cordtctk8uQp2IscJzpaaG9vL1ErfLVQKKysrAwNDTUyMoJQpqeno7kq4/+KlpCWlmZtba3mt2hFdHd3Qxqys7MHVZLCpdiXopobV1Id2SWOkMJlyzbAZ0Q5Ofks18Vx5LvVomwemeLo6Bj93XdGcBuPHKmCOB47dmv69NlC4V14iC4uCehFEhJaYKg335xKxNHCIggOJmTx/ffnp6VdJMdpbOw3MhLg68TvVgsEAtHdasS8qEZOTo6Hh4e+vr6/v39xcfGDBw8Ua4cTJ04YGxufPHlSsYflKOiN3NzcBtVYHA8cOMCJVEd2iSNe+/Y5vffe32bNWvTOO9O9vNIhjjo6LhwVx8Fh8hzhM964cUO0zXDiGBlZO3nyO42NAxBHhNXGxr6rVm1esGB1UFDh0aNnVq784rPPvps6dQYRx5CQkjlzNLdv14Y4ih+wpWUgPV2IBinKcxzuIiCC3+bm5ri4OEtLSwsLi5iYmKamJkVFxNBlHBMqrOYp0ABGINd81VYco6Ojq6qqFHIopcI6cWways6Tvvei1F9LSTx8+NDT03NkZRwcTyOpq+tpaOgnZXJZVvzT2tpu0acTNBRqXlpaGhAQAHfS3d0d7fnatWsTvLXS3t4OawQHByO0nMhxuM79+/f37dv36NEjboljQcEdV9cjlZWVEx8/JTc3lxPPmLNRHFXflSkcNIDw8HDEknl5eYhkxZWRW89WIxi/dOlSenq6s7OzoaFhSEhIRUXFkydP5Dva69ev4Zk6ODjwaQIJOdDT08vPz+eKONbVdXl7R4h38BERERO54V5XV8eJcX+pOCqYu3fvhoaGmpiY4N9PXCTRqDwylXGQ3eIoDly/+vr6yMhIU1NTW1vbpKSk06dPy+EGQl5hH05cdVISHh4eXl5eMn93f//ja9ZsXbBglYVFkJL+DGVlbe7uySOkx0q8JJRRpI9ynz5XUh2pOCqM27dvI2aEcBQVFfX09Ih/FB8fD2W8deuWzB25Io4iBgYGEFtB/Q8ePIi428fHRygUQvfHfj3x6tWrMFRhYaECa8UhYDoDAwPp3z0v7/acOcuOHbtVV9ezePHaxMRTTUPJvyTLtbT0WXb29YCA/JycGyUlT3Jybg6tfJqb29oklgOL9TgOFiGC/v5CkgBXW9sdHl4ZElLS0NDv7Z2xatVmHJOkx1ZVdYSFlZ840dc0dBcUXypeMUTTw6VbyH36T58+5USqIx3PUQFAFwIDA83MzEpKSqRHfiUzJYww7zNXMtRkgm7g7NmzycnJCJYFAsGRI0dqa2vHkj757NkzhOpwQIYbK1c1ZlGl3V6+fHny5MnU1FRXV1dE1tLiaGDgaWkZTMrk+aj167/ds8dm5covPD1TDx7M+a//+quBgdebb05NTb3w0UefYIOffrI8eDBbPAf2xx8t5s1bYW4e8P77862sQj74YHFl5UtsbGJy6LPPvsPxra0Pz5+/Mjq6/uOPv4KMzpq1SFfXDe8Q0Lfffg/upKbm59idVCMurlLh4tjf36+trf369WsF2lYZ0JHAJwRCZj8/PwsLi7KyMpl5gvybY2sEoHdVVVWHDx82MjLav39/WloaYucR0ichi+Hh4VAKmWPlsuGS3MTFET89/gMxMTF2dnbwFv3hywmFcXFxhoaG0icIgbO3jyBlSBXcQ6gYcQaXL98IcYTwYXHduh0pKeexButnzfqovPy5eA4stoGSQls//HDp2rXb3dyOEvcTqrp06foffjCNj2/eulWLJDkYG/s6OERhg59/tjpwIOsvf5mJcnBwMXkAQUniOMiRVEcqjnKCwNDX19fS0rKysnK49s+/2VnHCOLrGzdu5Obmenp6Iu5G/1FUVDTcLGMFBQXwrEVjFIngqDjCIcK543xDQkJMTEysrKzgTZeXlyN0EF12cHd39/HxkT5BeHMrVmxqaHg95DN+4+OTCYFDGfHymjXbII6//bYfi5s27U5JOefunoyNd+0yqa/vFc+BhTgifK6sbD906BgOuGDBauw4efIULAoEB+AYQhy3bPmViKOTUyx5Ju3rr3WCggohtShHRFR/+62B8sLqQY6kOlJxHDeXL1/GPxtdX3V19QjZLRUVFfAo1fy2LOjq6mppaYmPj4dMoKuAD9XY2Cgxz9T58+ehIxLD/DEujmNPXsE5njt3LisrC38MdAbOzs6JiYkNDQ3DzR6hq6tbUlIifYJw9yBbiJ3nzl2+Y4du01CgDQ9xwYJVMTEnoHH79jn9SxzPw7X84x//BJXEGvEcWCKOOBS0Dwq7aNGa4uJH8EARem/cuGvDhp35+fcRmENbsQE0VFPzM4gsvFHsguBaQhyblHBDZpAjqY5UHMcB+jovLy9bW9u6urqRk/4QZUMLHj9+rLK6cQI40aWlpYGBgQgw3dzcoCZwwIkl8ZGDg0NCQoLoUhSD4jiW5BUIH+QPIujk5ARBhCuE04FEjprjAqndt28fdh/uBOEJQvhEi7W1XWOrc490lmtVVYeoXFPzSnxjck1zLF8hbQ3pXN3xwolURyqOYwJ/eg8PD3t7+xMnTox6TxZOAZRR7mRAdQAKCAc8MzPTxcUFQhkcHEwCT+gmup/29vZBRsVxOF8JuoZuD2GypaUlXF0Ezgifb968Oa70+NTUVIgpsyco30t0kQHOgZ2d3USS+TmR6kjFcRROnz7t6urq6OiIYHAsqSpoLYi46Wx8Y+fly5focqKiokxNTW1sbOBRGhsbP336VFo7xj7M5UReI1xlgyLExMTU1NRM5DoyDoIOYJDL4jg4NNsB71MdqTjKBjp48uRJZ2dnBE0tLS1jzODLz89H825ra1N29XgJjNzU1OTv76+rqwt9lNaOUYe5RFwZGVkbG9sAARUv46OMjCsBAfmlpU+bhuLWiIjqgoIHhYW/Nw3lDwYHF4miTiXdnyV0dHQgJsX/ZJDj4tjb2+vg4CD3lA+cSHWk4igJmmhzc/P+/fsR8Z06dWrsOwqFQjgFz58/V17deMmLFy9IkIVAFQZ0d3dHQeYluVGHudy922z3bvONG3c5OcWKlx0doz/99Gtz84DZs5fU1fXgXUfH5b33/ubgEBUaWqqp+bmenvvixZ+qQBzhIxsZGYmGquPcS/xcHjx4IBAI5BuMjhOpjlQc/xvIYkNDA/pDRHZnz54d1765ubn29vZ0Yqkx0tfXd/HixfT0dDjmEIvQ0NDKykrEqmFhYR4eHsSMMsVx5GEuLS2DNTTm7dvnhHBbvAwn0coqZMcO3TfeeCsoqHDXLpOmofGfII5ffvnLmjVbcQR8VFz8uElpySuE8PBwrgz1OhbIxUeJ58HGiJWVFctzOag4/gP0Y+Rn9vT0PH/+/Hh3z8nJgaSS2wiUEYCvUVxcjMBZX18fIgi7Xb9+ndzNIA/MREZGioRDpjiOPMylr28udBNu4Lp1O8TL8C6//dYgO/v6n/70n0ePnoGSNg1l9kEcv//e2MkpDkcwM/OvrGwnX6SM5JXBod7X0NAQEclE7cgmoqOj8avJsaOPjw8ZEZ21qLs4omXW1NRYW1vL/VNlZmY6Ojq+fPlS4XXjB2SYyNjYWMsh4uLisCgxTOSNGzfMzMwKCgrEVw4njiMMcwmZW7JkHaQTobR42dTUT1Pzs61btd5++y/l5c+/+06AfWfOXIhIPCXlPMLqNWu2bdnyq+iLFD4ODQE9AU4zOTl5gsdhFXAb4RmgEY13R6gqy2epVV9xfP36NUI5+PYHDx4kU6TKAQkMJVKaKehyrl27Jj7AeElJyXADjNfX1xsbG0tfxxj7/QrxFD+URcNcipdF91tKSp5oaTmUlj6DIEZF1Ul8OsItiImTlZWF6KSxsVGBx2QD9+/fl+PiI/tTHdVRHBG4lZeXW1hY+Pn5ST+1NnZSUlIQCdLZo0Q8ffpUNDUNLDPq1DQIMzMyMuC2y3yyUHk3c+3sjmzatFv0FPMY789OHNgEluFlmpccFx9ra2tZnuqoXuLY29tbWlpqbm4eEBBw8+bNiRzq6NGjrq6uVBm7u7vPnDmTlJSEtmFiYjL2SQ2xY1BQkLe393B+NxsyXRQojs+fPzc0NGR//orcjPfi4+XLl0m+J2tRF3GELBYVFZmZmaFBDjeu4hiBv5OYmOjm5qa2sw/DArdv387Pzz9w4AB5cg5lrBn7eI5PnjxxdHSMi4sb4dkSnoljVVWVh4cH3GpFHZBtjPfiI/4DiN6UWqUJokhxZDzxSibwUAoKCuDU4H858ekv0P7j4+PxLx+7MjKemzZGQ42KREIivEX4jHKkcVy5cgVHgAs/8maMW0xRdiOEhIQcOnSI3+P7juviI/tTHRUsjqzq2CGLQqEQ7TAsLEwh8yZDGWNiYhALjOupUtWbRYEekMyExKdPn8p3tMEhB8rY2JjlORwKB2ZETO3s7DyRa9ycYFwXH1me6shPcYRbd+zYMXRicHMUNQszlDE6Otrb23u8z9tzURwfPnw4XEKi3GD35ORktBw1HOASnYG7u7uuri5v0r9HYOwXH1me6sg3cezs7ERLhixGRUUpsBGiYUNnDxw4MNyY/iPArDg2NvaHh8N9thTNWz3clUHxhEQLCwuZCYly8+rVK19fX8SVKCjkgNwiJSUFhnVzc2O6Iqpg7BcfWZ7qyB9x7OjoyMzMROiHyFexAylCGY8cOYK2LYcyDjIqjo2NA/r6Ahsb+9bWVvgseLe3t4eVRPo4roREuYEfamtrC7dxgr4nd4G/fPToUZ6lf4/AGC8+sjzVkQ/i2N7enp6eDlmMj49X+CiKaM9hYWFweeQOiBgUR/iM0k8EQx/xpxxXQuJEuHDhgomJCZsdBGWDrtrU1DQ4OJh/6d8jMJaLjyxPdVSuOK5Ysami4gUp79xpmJp6QbGNPzi4CAELWnhiYqIycmtfv34NBYE/NRHhkDaLp2fq3LnLly3bMGeOJpkyCS8vr/Tdu80Vax9rayfpmbKxBvH12BMSJ0JpaSl0Qe4HkPgBjIBohgw1xHRdVMqoFx9ZnuqoXHH8+Wcre/tIFMrLn2tozGv690lya2u7g4OLs7OvN/37vLqlpU/z8m5jZXr6paKi30Wz8R4/fk/i+E5OwQhVlDR+IgQRvX1gYOAEXSpps1hbhxobH2waempt9uwl8fHNQ+cSFx1d3zQ0vCDONDKyVjRWvmjm4mPHbsEOfn55JSVPsCgU3vH3P066H0TQMCCZwlj00tGRcQcAa3R1dSdyRmMB/QoceUdHRzoiup+fX3l5OY/Tv4dj1IuPLE91VK44ZmZeXbx47ZAcHDY09JaYJBd+JdRz0aI1ERHV4vPqentn6Oi4Ng1N2puWdvHDD5fCQ4S2kunJxV8KTEOTAAoCWYQ4TjwPS6Y4fvnlL76+uY6O0e+++35l5UvxQQnJ9MT/slKX+MzFWloO8+ev1NZ2njFjDnoOOJ7m5gFLlqyDMi5c+LGBgSc+TUhoEX2Rre2wnuMET2pkOjo6vL29YcCJjKTPDyAQ+vr61dXVPE7/HoGRLz6yPNVR6dccoX1C4d0FC1YXFv4uPkmuq2viBx8sRrmysh2+j/i8uuLiCHmFCvzP//m/DhzIkj64ksQRyohQGv9mhdxAkCmOy5dv3LPH+s03p8JxhjctPighxJEMOIiI283tqPjMxRBHD48ULE6fPruw8OHUqTO2bPk1LKwiJuYEyjgChFJHx0X0RdHRQnt7e4n6aGlpCYXCiZ/XcKAlWFlZid/2UWdOnz598ODBpKQkfqd/j8DIFx/ZPA+d0sUR0eLXX+usXbt9qPzfk+T6+wsRUZKYEcInPq8uXKpffrHFRxoacyGO8Doho+IjSilVHHt7ew8dOhQWFqaoW6sjhNUIinFqCK7FByWEOG7btg+ffvXVXgTa4jMXQxwRU2Nx5syFOTk3EEcHBRW+/fZfII6amp/hCIGBBWFh5aIvamzsNzISQA3F71ajJ1eebJ05c8bY2PjEiRNKOj7niI+PLyoqcnV15X369wiMcPGRzamOShdHtPw//OE/oALESRSfJNfIyGfVqr/DqczLuyU+ry7CZ4jF5s0/I5QOCSnBOw6yatVmqIayxRHKiH7+yJEjCkw6GUEcm4bmINbX9xAflBCn+d57f8PiF1/82PTvMxeLi2Np6bN581bAXOh4Ghr6t2/XhnrOnbtc4rJjS8tAeroQcbQoz1F5+TT5+flmZmYTHNGDZ1hYWNy9e1dN0r+HY4SLj1FRUazNZGAglUd8klzxsviYemjtdXU9ox5KseLY3d2NfgxdnGIdqzGaRTQoIcTxt9/2j3Hm4uEmJlaBiy0OWj7s5uLiQicXEweyaG1tfeXKFTVJ/x4BcvFRemy6nJyc7OxsRqo0KnzIc1QIUEZvb2/4/woPOcdrFkTQxD1kp6GkefHihbu7e2hoqHxJ8jwGrnRSUhLe1Sf9ewRkXnyEOynfLAsqgIrjP+jq6vL09IyLi1PGxTguPls9dm7fvo3I8dixY0o6PqdBd3vu3Dl1S/8eAemLj5cvX4aVmKrPyFBx/Mdjvx4eHvHx8Uq6TcFjcWxubkas1NLSooyDc53Ozk4DAwN402qY/j0c0hcf2ZzqyP/xHEcG/2A3NzfEPoowgGyYGohQsYaSJjc3F39reI4KPzI/gLcYGBj4+PFjNUz/HgGJi4/9/f379u3DO+MNRLqNqMtI4DKBMrq6utLrQeMF3tDhw4dFE0xTZIL4saKi4sSJE+qZ/j0CEhcfSarjYaYDLCqO/01HR4ezs3NaWhrTFeEY0hNMU6QZGBgwNjZ++vSpOqd/j4D4xUeS6kjFkS28fPnSyckpIyOD6YpwDJkTTFOkgaEcHR1RUPP07+EQv/hIUh2pOLKC9vZ2/DBsHkiOnQw3wTRFmpycnPT09N7eXjVP/x4B0cVHkupIxZF5Xrx4QQY0ZLoiXGLkCaYp0sBhvDIETf8eAXLxsaKiAiE2FUeGef78OX4MpQ67wD9GnWCaIgE6YCMjo/7+fpr+PSrR0dGHDh3Cv0taHD09U2fN+mjOHE0y+tQIumZtHUrFcUK0tbXZ2Njg/8p0RbjEWCaYpkhQU1MTFhaGAk3/HpWenh5bW1v0JdLiKD4EAXnl5NwMD69sbBxAuaDgga9vbmbm1dLSp++++35Kyvnc3NaysjZ8lJh4qra2OyvrGhkUtbT0WXBwEXm4VnwIVCqO/+TZs2eICouKipiuCJdAVGhqajrqBNMUCUJDQxEwokDTv8dCeXm5tra2THHcsGGnk1MsXpWVL83M/L/44sedOw2//944MfHkvHkrbG3Dp02blZx89s03pwYE5O/ZYxMYWIAd4W9mZ1+fNOnPW7dqQUA1NT/X03NfvPhT8SFQqTj+E7g/VlZWJSUlTFeES1RVVaFtX7hwgemKcAy42AYGBu3t7TT9eyzk5eXp6+traWnJFMe1a7fjHa/KynYNjbnbt2t/+63BlCnTqqs7oZi7dplMnjwlI+MK1BDbS4gj1BDlL7/8Zc2arZDUN954KzX1gmgIVCqO/wD/UUtLy7KyMqYrwhnUeYLpiXPp0iVyE4amf49Mb2/vkSNHYCsbGxtDQ8NRw+qFCz9GvHzs2C2stLAIWrp0PWTx/ffnp6VdhBoi1tbScvTxyYSPOWnSZIjjunU7sBfcTCenOKHwLhxP+JiiIVARjKu7OD569MjCwqKiooLpinAGNZ9geuKkpaWRXIikpCSaEDocL168gCyGhYV1dnb+9ttvzs7Oo4rjoUPHNDU/W758o6mpX0hICQJkOJIQR+wIHfzmG/2IiOrp02fDMZw27QOROKaknEdYvWbNNqyXGAJVrcURjg/iGtYOpclCYDE1n2B64jg4OJB5e2j693CQkZwQUKPc0tKiq6sbERExllQeKJponFMURAIHt5EM/yq+UvwlPtSp+BCoaiqODx8+NDMzG2HmM4oEdILpifPkyRPYcGBggKZ/DwfUUHwkJziP+/btKykpoXmOKuL+/fumpqb19fVMV4Qz0AmmFUJZWVl0dPTg0I1+mv4tDbxFBHOikZzQeRgYGOjo6NBnq1XEvXv30M4bGhqYrgg3oBNMKxB/f//m5ubBoTHAafq3OKLbL+IjOZ0+fRp/PD09PW6MysP4kGoTHILtzp07UEa2Zd4ybiVpQxE6Ojp8fHzoBNMKAe1fX1+/q6trkKZ//zui2y8SE2lERUX5+fn99ttv3BjP8TDT+j0RsYe7DmUkXTerYNyqMsWRTDCdkZFBJ5hWCGfOnEFPQ8r4Hz59+pTZ+rAE8dsv4iBkMTIy8vLyEggEjFRsVPgjjq2trSYmJidPnlSp/cYG41aVFkc6wbTCSUxMJLk7NP1bhMTtF3HOnTvn4eGBNsvai7M8EcebN2/CyqdPn1a1/cYGg1ZtbOwPDxeamFiK5q2Gn4g2TCeYVjhww8moRQ0NDSEhIUxXh3kkbr9IEBsbiw3wt+TM7INcFMfr16+zfJxBpqza2Digry+wsbGHW93X14d3e3v7qKgoT09POsG0YoEsQhxJmaZ/y7z9Ik5/fz8JXCwtLTkzbzXnxPHatWvw28+fP8+I+cYIU1aFz6ilpSVRGeij9AUgygSBGiKsJmU1T/8e7vaLOBcvXoSVioqK8G9kbWrtmMSxpubVzJkLk5JOS3806khq2Pejjz75/nvj774zktA1G5sw0eKGDTvlaPz+/segjDA0I7YbO9JW9fRMnTt3+bJlG+bM0fzxRwuy0ssrffdu85FPmRh8xw7d0tJno9rH2tqJPK0hDtYgvmbEDjzGx8fnzJkzg0NOkzqnfw93+0UCdCTHjx9HQG1nZ8fa9jsmcXRyilu+fOO2bftQLi19mpd3G4X09Ev5+ffJSGo5OTexMjHxZNM/BlM7KS6jBw/mLFiwKjv7RmxsAxaxWVBQYVVVx4EDWdrazpGRNdh3yMepbBoKA1HIzW1tGhq7jRyzrKzN319YUPBAVsWCL1++zIjhxoW0VUXPjaLzmD17SXx8M7FzdHQ92UA0XF3T0ENRwcHF2dnXRUPXYTPyvBSsil8BhWPHbsFifn55JSVPRN+ioyOjlWINWi8jduArXV1d+vr6xFFS5/TvlpYWBMujzmM+MDBgYmLy6NGj/fv3m5mZPX78WDXVGy9jEsdFi9agZU6bNquyst3bO0NHxxUr16//NiysnIykBt9n3rwVaPCbN+/Zs8fmk0+2ODvHk32trELQ+NG2P/74K7RqeKCGht5wmry9M996610dHZcpU6ZVVr4k42osXPixgYHn/PkrExJayDHNzQPef38+DvLBB4uxmUTFhkvfYxsyxfHLL3+B/Dk6RkPvcGriphMfrq68/PmKFZt+/tkKv4KXVxoxuKbm50VFj/ATYJeVK7+AH6ql5QC7ob+ZMWOO6FtsbannqAqampr8/f1JWW3Tv0e+/SLO1atX8Q8knbS2tjZrH+QfXRwhi2+88ZaJyaEPP1wKkRIXR/g1ZCQ1CBnaJ/zBSZP+vHOn4eeff49GTnZPS7u4ceMuofAOxBGyiAaPlXB2II7ffmtAjpOaegHHiYk5MXXqDOy+ZMk6iCY5JhQT37t27XY3t6PSqs1pcYQzvmePNcQOFpYwnfhwdXAq0TFgF/RMFRUviMEhjunpl6GGxMXGoSCOHh4pWJw+fbboW6Kjhfb29hKV0dLSohNFKJbo6GjRmHhqmP496u0XCdB5HEOkc+sW/pyIwZVdPbkZXRx/+cV27167kJASuC0aGvPg7GAN1mtozCXiCP2CkGGD+vpetEyh8C4cHxeXBGlxhE8kEBzASkitu/tRuDkob9q0OyXlHI6DOF1T8zPsHhhYAJ+UHBOKcOjQMUSRCxashvvJJ3EkYbW//3FoH4JrcdOJD1eXnHwWrjeJoIOCConBIY7YGN0G1iclnV6zZhvEETE1FuGbi76lsbHfyEgANRS/Wy0QCGjWtwIhQaLo4Utlp3+z6hmSwbHdfhEH5oIg3r9/v7q6msweo2ADKY5RxBHtcOpUDdGUC1AoSBWa8ebNP0Mos7KukZHUiJBhA2Nj31WrNmMzNGMxcfyBiCMixNWrv4RntGOH7oEDWXAP/yWO54lDtH27Nto5gu7c3FZyTFQAO65f/w2CSvGrabwRR2IBfX0PcdNJDFdnZOSzatXf8RHMSAxOwmoDA0/4jAsWrILTLVMc8WppGUhPFyKKEeU5sjaK4SjochwcHEgZEmlmZqbUr2Mwn0S6uY3x9os4N27cIOZKSkoKDw9nbZLjoHypPA0N/eRuQJPYSGqiFxZlDqkmetXWdo3wqfjIa6LX2IdgYydj/EOLm05iZDqR0SQMPrIxOWcoLpKbm5uWlkbKKkj/Zo84jvH2iwSwFZkyHj4jlJG1SY6DPMhzZMJo44Zxq3LFUFwEQeWlS5dIWQXp36r/L5GHrKytnbS1dUQPWY399osEVlZWd+7cwREMDAzgObI2yXGQiqNqYNyqXDEU52hvb0cjF12pUEH6t4r/SzIfsoLH5+PjM8bbL+JATG1sbAaHHj9HPI6DsDbJcZCKo2pg3KpcMRTnqK2tFc2ipZr0bxX/lxT7kFVmZmZ6evrgUEgeGBgIL5K1SY6D/BvPkZ0wbiWuGIpzhIWFiabiUE36t7Q41tf3btu2b/bsJZ9++nVW1rXD//7s2civwsLfJR5dk3gp9iErOzs7crTs7OysrCw2JzkO8nIkcApFNaBhGxkZiaJL1aR/S4ujm9vRH34wRSEwsGDHDr2CggcZGVewKBTeyci4nJx8FuqJQlhYOXmGDS9sEBCQX1r6lKSRNP3zKawikhCCXRITT5HnUxX4kNW9e/csLS1JGW5jRUUFm5McB6k4UihyA1fR1dVVtKia9G9pcYTSTZ06A/oI+cMieTDXxydz1aq/f/+98f/5P///8eP3/vCH/9DRcfnrXz+MjKxxdIyGj2luHgBnk4hjfv79uXOXGxn5YE1ZWdvkye9s2rQb+tik0IescnNzU1JSSBmy2NDQwOYkx0EqjhSK3KSnp+fk5IgWVTP6t8xrjvAB7e0jly3bsHnzz0Qc167dDm8RH02ZMg3iuHjxpygbGHg6OcXCtbSyCtmxQ/eNN94i4mhpGTxv3oqdOw01NObCo8QuoiMr8CErR0dHcreqo6PDwMCgurqazUmOg1QcKRS5QWu/ceMGKasg/ZsgLY5aWg729hFNQw+YvvnmVCKOiK/DwioQLP/xj3+COK5atRkbmJr67d8fs3nznm+/NcjOvv6nP/0nEUcXl4Tdu82FwrsowA8lT2SQl6IesiJTJZO9Ll68CJ8R/QqbkxwHqThSKPIBJ9HY2FikESob/VtaHBEUwzGcM0cTobGTUxx59iwt7SIEEf7jf/7n2xLiiHdNzc+2btV6++2/pKZegDhCVT/5ZAs2hu8JPZ01a5H48RXykBX2SkpKIuWioiKUo6Ki2JzkOEjFkUKRj4qKCvGoUGWjfw+XyiN6xpe8XF0TsWV6+iXyAL7ES+ZzaDJXir8mkvPg4uIiGl0QdoMssjzJcZCKI4UiH4GBgeK3X1Q2+vcY8xwLCh788IPp9u3aR4+eGWNaz6gvucXxyZMn4l72/v37b926xfIkx0EqjhSKHPT29hoYGHR2dooWVTb6N4MPFMgtjvCp4+LiSJmkAfX09LA8yXGQiiOFIgfnzp0TT0NR5ejfXBRHd3f3CxcukDJ8RniO8CVZnuQ4SMWRQpGDpKSk/Px80aIqR//m3HNWz549EwgEIieRZPBcvnyZ5UmOg1QcKRQ5sLa2vnfvnmgxJCSkoaGBwfqwmeLi4ujoaNEi+pWioqKamhqWJzkOUnGkUMbLgwcPJEJC1aR/cxR4iGReRtHixYsX2Z/kOEjFkUIZL3B84uPjRYsqS//mIi9evDA0NBTdqiLDOHZ0dLA/yXGQiiOFMl4OHjx4+vRp0aLK0r+5SHl5eUREhGiRDOM4ODTNN8uTHAepOFIo44JMUd3T0yNao7L0by6CjuTkyZOiRTKM4+DQeOAsT3IcpOLIEth5n5EiDZq3n5+f+BqVpX9zjpcvXyKIFp+VMHuI/v5+9ic5DlJxZAnKTl6j4qgoYmJiSktLRYuqTP/mHFVVVWFhYeJr4Daid+FEkuMgFUeWQMWRK5iamorHg6pM/+YccLElBriEJsJ6nEhyHKTiyBKUJ45k6jgTE0vRkCrjHWyKIuLWrVt2dnbiawoKCo4ePcpUfdhMZ2cnYuru7m7RGjKMI/5+nEhyHKTiyBKUJI4yp47LzMyk+igfeXl5orGsCTT9ezjq6uqCg4PF15BhHFHgRJLjIBVHlqAkcRxu6jg5hnGmAA8PD4kEFJr+PRyBgYH19fXia8gwjihwIslxkIojS5AWxxUrNolG6Nu509DRMVp8SrkNG3aSwq+/2ru4JAwnjoqdOk7NIVGh+L0Xmv49HF1dXbAV3sVXkmEcBzmS5DhIxZElSIvjzz9b2dtHolBe/lxDY55oSrnc3NasrGtkIHtEzcbGB7GG7FJY+Ht0dL34QRQ4dRwFfpBEsjdN/x4OWCYgIEBiJRnGcZAjSY6DVBxZgrQ4ZmZeXbx47ZD3d9jQ0JtMDIL35cs3fvON/qRJk6GMCxd+bGDgOX/+yoSEFn9/4dKl6+FIkpk2yWuEqePwB42IiCgrK7t9+za9BDkWwsPDJYJBmv49HKGhoaLpvAmkS8Y7V5IcB6k4sgSZ1xwXLVojFN5dsGA1XEIijoimU1Mv4KOpUzViYk5MnToDEfeSJet0dFzWrduRnHwWHy1btiEv7zY5wghTxz18+BBNPSYmxsHBARGQr69vTk7O+fPnJUIhCoFMUf38+XPxlTT9WyY9PT3iIwETyDCOg0PXIjiR5DhIxZElyBRHJ6e4r7/WWbt2e9O/JiOGzwgnsb6+9803p6anX9LU/AzqGRhYEBZWDpUMD6/ElvPmrSgsfCjK4xnL1HEdHR1nzpzJzMz08fHR09ODX5mQkIAokhOxj2q4evWqs7Oz+Jre3l7YSvzxDwqhubkZfa3EStFErFxJchyk4sgSZIpjTc2rP/zhP/z9jxNxhHt49OiZlSu/+Oyz7+AzYuX27dpr1mybO3d5bm4r3EZ4mpDLvXvtxA8y3qnj8OnNmzeLi4sPHz5sbm5uamoaEhJSVFR0/fr1169fq8wgbAM9R1ZWlvgayCVN/5ZJOHrpykqJlWQYRxS4kuQ4SMWRJYw9laehoR+eo7iAin9aW9slc6+JTI3U0NCQmJgIvwmOkpeXV3p6+qlTp16+fKlQA7Ad9CvoHsTX0PRvmSBAQUzd3t4usZ4M4zjInSTHQSqOLIETjw92d3fj/33s2DE/Pz80ADs7u+jo6Kqqqvv37/P7lk5bW5v0tQia/i0TdJw+Pj4SK0XDOA5yJ8lxkIojS+CEOIqDv/vdu3fJ3M02NjZGRkb+/v55eXmXL18WH86LHyBIFB+UkEDTv2WC/4P4wBwE0TCOg9xJchyk4sgSOCeOErx48aKlpSXt/7V35lFRnNnf/3fmt8y8k19mkjEnRpPIRGPcl4iKEZdETUzclxicOAkqCtKA7KDsICr7EhDCLiAggiAgi6DsSjSuQYwbLjgGxxVE8Hm/P+tMv/12N83SDbX0/Zw6fZ6qfrq6urQ/3Nt963ZGhq+vL7JvLy8vpJz19fWIuQb0eQeHsLAwpSCRyr/V0tnZqfqdPlNo48jEU+TISI4CQUr9HF+8eNHU1FRYWAinWFlZIWSIjo5GNHH9+nWdV7cNwnnjPkTjUkI5VP6tlnPnzvn5+alu59o4sldf94mlyJGRHImBpqWlpaqqKjExcefOnebm5nv37s3Ozsa76NmzZ9rvfBAi7vPnz6u+4an8Wy3x8fHcV9JKcG0cmaiKHBnJkRhMIMSzZ89Cjnv27IEooUtIE+qEQPu3w0GQY1pammqfDir/VgXxoEwmU/s5LNfGkYmqyJGRHAm+wHsJiTbSbSTdePMgAQ8PD0c4Bun0vrH2gLV6+98mmI6O7ps3m1lbW6enpyt+Vc11/6bybyUuXryotvBT3saRiarIkZEcCYHw4MGD+vr61NRUBGVbt2719fXNyMhALqZaMafIQMixxyaYVP6tluTk5IKCAtXt8jaOTFRFjozkSAiQ58+fI//Ky8sLDg62tLR0cnJCuFFeXt7c3KxUbDgQcuyxCSaVf6uCfxeE2Gq/hpa3cWSiKnJkJEdC4OBdd/v27YqKiri4OBcXFyRoQUFBhw8fRjzS2dnZ3WWXI0dO3L//TJ+cKG+R2WMTTCr/VqWxsbG7JqHyNo5MVEWOjORIiIv79+8jNfPx8YElAwMDu2vYMX36wmXLNmFcWtp65Mit2Niqqqp2rKalnc3NvZaT8ys3ExvDw4+WlNzHmGuRebIXTTCp/FsVhNKI9NXeJW/jyERV5MhIjoTwefz4cUNDQ1pamoeHB1cMlJubi7y7q6uru1Zvhw5deffdURUVj/buzXn77fe3bPEeNWpyVVXbkCHDV60yNzZe5u2dWlBwe+zY6ZaWu0ePnlpW9kAuRw1NMBmVf6sD0b2tre2dO3dU75K3cWRiK3JkJEdCmDx48ACpa1JSEtduMjg4uKCgQLUzkKococXXX/+rtXXgRx997OAQATmuW2eN7evX2wUF5Q0b9kFdXScix1mzvrS3Dx83bsaaNdsMDMaGhBTI5aihCSaj8m914N8F/0xq75K3cWRiK3JkJEdCOCDhqqysjIuLc3JykslkcFBxcTHeXRq6WqjK8R//cP7uO5eIiJJduzIMDMZBjlx+/dVX3yUnN7z11rtIpRMS6rHR0zPZxMQ2P78Zg6ysRrkcNTfBpPJvVTIyMrr7DlrexpGJrciRkRwJfrl9+3Z5eXl0dDTyMqSrGBw7duzWrVu9fLiSHOvrXw4daiD/YbIJE2Zt2+aPaNHIaPHnn6/HFqTVxsZLp06dB1Ei6Z49e8mcOcunTfsUxpTL8aTGJpje3t6XL18esPMhShwcHJqbm9XeJW/jyMRW5MhIjsQgg/jrxo0bCAkRGCIcc3R0/PHHH/G2uXfvXj/21mMpDyLHjRvduG9juG9damo66uq6FL/a1vBwpWvSqfxbFYT2zs7O3d0rb+PIxFbkyEiOxCCAsOvKlSsFBQUhISHbtm1DlpqUlFRbW6t9z54e5bh//5mgoDz5qrm5b5/qe5TkSOXfqhw8eDArK0vtXYptHJnYihwZyZEYIF68ePHLL78cPnw4ICDA3Nzcw8MjNTX11KlTmq946SuD3OqNyr9VQdio+uU+h2IbRya2IkdGciR0SHt7+/nz57Ozs3ft2rV161YfH5+MjIwzZ84o/RCdDhlkOVL5txLNzc0ODg7d3avYxpGJrciRkRwFgnj7OUJ80N+BAweQbyJC9Pf3hxwvXLgAUQ7QMyoyyOeNyr+VyMnJSU9P7+5eeRtHJsIiR0ZyFAiDHAFpCVLjkydP7t+/393dnfvN67y8vMbGxt530xEjVP6tys6dO5V+d0wReRtHJsIiR0ZyFAjCl2Nra2tNTU1iYqKLi4ulpSX+3xcWFl69elVcsYA2UPm3Enfv3rW1tdVQhSpv48hEWOTISI4CQZhybGlp4Yp4HRwcrKysIiMjS0tLb968Ke3fGuyO1NRUKv9WBOmCvN2OKoptHJkIixwZyVEgDJwcub6t1tb28npmDWrDXbdu3SorK4uKirKxscFf/piYmIqKCsQIg3k2hAmVfyvh4eGBeLC7exXbODIRFjkykqNAGLCO1j30bWWvPinH9qNHj4aFhclkMmdn5/j4+Orq6vv37/N4QoQGlX8rgXzZ2tpawx9axTaOTIRFjozkKBD615cwPr7W2vp/23Y5OUWpndBd31YkRE1NTYgig4KCkPvs3LkzJSWlvr5e9Uc1CQ4q/1aisLAwKSlJwwTFNo5MhEWOjOQoEHrRl/C3vLwbGGRmXqqqakNIGBtbFRSUt369XWHhnaysRtxVVNQSF1ejuAcNfVu9vLzS09N/+uknpR8dJdRC5d9K4E/FhQsXNExQbOPIRFjkyEiOAqHHvoT+/llmZl7YOH/+6oMHL8+Zs3zDBqfRo6dCjnv2ZG/e7BEcnP/xx/O//971k0++ku+hx76tRC+h8m9FWltbZTKZhkIFxTaOTJxFjozkKBB67EuoKMekpFMTJ36C8a5dmXI5zpu3Mi3tLDZOm/YpF2Oe7KlvK9F7bGxs6ENYOcXFxfHx8RomKLZxZOIscmQkR4HQY1/CgIBcbMF2A4Ox6ennp0yZg7GbW7xcjmvWbIuOrsDGceNmFBXd5XaiuW8r0Uuo/FuJXbt2nT17VsMExTaOTJxFjozkKBB67EsYGHj4vfdGL178LUSZnd1kYbHL2Hjp9OkLOTmamXkibEQabmj4GZSqWMejoW8r0Uuo/FuRhw8fbtu2TakluxKKbRyZOIscGclRIPSmlKeurqu6+rl8Vd6jUHGpqmpT2qKhbyvRS6j8W5GysrKYmBjNcxTbODJxFjkykqNAEOYVMgTHIJR/D0IHDV214dizZ8/p06c1vBalNo5MnEWOjOQoEEiOgmVwyr8H+j+Arv4XPX78GOLTfDaU2jgycRY5MpKjQCA5CpbBKf8WixwrKiqioqI0vxalNo5MnEWOjOQoEAa5L6Eo4D2F5JbBKf8Wshy5y/MdHd03bzaztbWNi4vT/IWeYhtHJtoiR0ZyJASLEHyBYxic8m8hvNhuzNjz5flKKLZxZKItcmQkR0KwCMEXOIbBKf8WwotVu3R3eb6GUlnFNo5MtEWOjORICBYefaGQSG62trbW3OdtgF6sj0/a0qUbufGGDU5ZWb8o3ltW9gATiopa1q61rKx8NmnS7K+/tsJYw4tydIzE7cqVW0pLW3t/KjRcnq/2hSi1cWSiLXJkJEdCsPAlx34kkgPxYu3tw3/3u//w8zuA8aJFJlxzpoSEuoKC2xj4+2cZGS3GGFv27s2ZMMHo0KFfMcZdeXk3wsKKjh9/gnFh4Z2AgNyDBy+Xlv72zjt/S08/HxdXw1XLynd1+PD1nJyrQUF5JSX3sZqffzM4+Ij8AoS+Xp6v1MaRibbIkZEcCcHClxz7kUgOxIuFHDdtch8+fGRx8T85Oc6fvxoh5MyZn8OYjo4/jB8/E6b75JOvHBwiRo+eGh5ejDH0N3LkxG3b/MeOnZ6UdGrcuBnOztHvvjsqLe3sm28ODQkpMDRccPToPcVdmZruwK42b/YYMWJMZualMWMMbW1Dpk6dxx1GXy/PV2rjyERb5MhIjoRgUfVFTU3HsmWbIIK5c1dkZzf13ncVFY+XLjX9ofvGl4pLXxPJAXqxkCOO1ssrZd68lZBjdHQ5FIbtiPKmT18I8eEVIcqDEDMyLi5cuI4bQ4uwIaYhKsSrdndPWLfO+i9/eSsrq3HUqEnYDjlmZv6iuCvI0dc3HavvvTe6qOju0KEjliz5PiqqnDuMvl6er9TGkYm2yJGRHAnBouoLb+/Ub76xwSA0tHDlyq0YIHmMijpWW/sC45SUn3B77Ni/8J5HhghZ7Nt3/NX20zDplClzucaXSlkkkujo6Irc3GvyZ+Glz1t3csQAynv99b8mJNR/9NHHWEUIaWy8DHKEwlTl6OGRJJPtwTRr60Arq4CPP56Pl/y3v43HHMgRLxZyzM9vVtwV5IizgVWEnDk5v+JsICsfMmQ4MvGTfb88X6mNIxNtkSMjORKCRdUXeJ8jroEfIUTuw7VRoyZv2eKN26qqdi4yiowsNTHZjlDonXf+tmGD48aNbpAIFAA5cu2LFLNIyGLixE8sLPywJTm5oX+J5AC9WLkc4fQ//OE1iAzHiUBvwgSj+PhaBIZIk3180v4tx284OeJvw6xZX86evWTlyi0RESXIkZcv3ww5Yv+IQFetMufSasVdKcqxtLQVmfinn66ZM2d5XV0XdyS9vzxfqY0jE3ORIyM5EoJF7WeOCGdcXWOnTft08eJvERnt2PEjNn77rQPEpyTHv//dnnvD19V1IjBUlKM8i4QaYNs1a7ZNnTrPzMyzf4nkwL1Y1UWxsUh19XPIXfM0/M2QOw6T///GJco9SuQL92WO6tLjpQRKbRyZmIscGcmRECyqvoDXXF1jXn2G+Ahxk7t7AvyI1RUrzJAJGhiMw9jOLoyTI4IjrMKJsEB6+jlFOcoDpczMS4aGnyHNRJ7ORaP9SCQH6MUKcOlRjkptHJmYixwZyZEQLKq+QC4JxyFVHDt2urt7IhQJtc2YsQgJI8KipUs3ImdcuHDdv+W4Cw+BEI2Mvliw4GtOjggPFeWIW2SdSLqxQ8WPHQe/z5s05KjUxpGJuciRkRwJwdKdL+QleNyimB5WVj5Tna+YS6pd1D6qlzoY6BcrqKXHs6HUxpGJuciRkRwJwSIEXwymHEWxaHgJqm0cmZiLHBnJkRAseiVHCaDaxpGJuciRkRwJwUJyFBeqbRyZmIscGcmRECy8p5A9JpKEIkptHJnIixwZyZEgCJ2g1MaRibzIkZEcCYLQCUptHJnIixwZyZEgCO1RbePIRF7kyEiOBEFoj2obRybyIkdGciQIQntU2zgykRc5MpIjQRDao9rGkYm8yJGRHAmC0B7VNo5M5EWOjORIEISWqLZxZOIvcmQkR4IgtES1jSMTf5EjIzkSBKElqm0cmfiLHBnJkSAILVFt48jEX+TISI4EQWiJahtHJv4iR0ZyJAhCG9S2cWTiL3JkJEeCILRBbRtHJv4iR0ZyJAhCG9S2cWTiL3JkJEdCFFA/R8Gi2saRSaLIkZEcCVHAV1dwkmOPqLZxZJIocmQkR0IUkBwFi2obRyaJIkdGciREAclRmKht48gkUeTISI6EKCA5ChO1bRyZJIocGcmREAUkR2Gito0jk0SRIyM5EqJAVY4+PmmjRk0aM8YQy8KF36hVm61taEzMiU8/XUNyHCDUtnFkkihyZCRHQhSoytHePtzaOlC+WlraeujQlZCQgpycX+Ubv/vOJTj4SHR0BcY1NR0QZWHhnaKilsOHr+fkXA0KyispuY+76utfYk5u7jVVObq5hSND7Ojo4PsECBS1bRyZJIocGcmREAVq5Th//ioXl31Y9u07vndvzttvv29hsevNN4eWlT1QlCMCzOrq56NHTzUz8xw27IMdO340Nd0xfvzMzZs9RowYAzNOnPiJhYUftiQnNyg9S0TE0ejoaDs7u/r6er7PgeBQ28aRSaXIkZEcCVHQjRxXu7rGYkFICDmuX2+H7fPmrUxPP68kx7CwonXrrLFl0yZ3To6+vulYfe+90fHxtUOHjlizZtvUqfNgT7Vp9eXLlz08PHbt2nXjxg2+z4SAUNvGkUmlyJGRHAlR0GNaDTlu3OiGwaJFJunp55TkmJr684IFX2PLihVmnByRU2N15MiJmZmXDA0/y89vDg0tjIo61t1nji9fvjx+/LiNjU1CQsKjR494PRlCQW0bRyaVIkdGciREgVo5DhkyjPtCZsqUOZAjosJ/y1E5csR47VrZ9OkLYUMPjyRFOeJ2+fLNxsbLxo6drvqxo9IXMm1tbQcOHJDJZEVFRZ2dnTydDKGgto0jk0qRIyM5EqJAy1KekpL7EGJpaSsk+OOP1aoTKiuf9f7b6paWlpCQEGdn57Nnzw76mRAQats4MqkUOTKSIyEKtK9zdHHZh6DS1TWmT4/SUMpz7tw5FxdEpsF3794dxDMhFLpr48ikUuTISI6EKBBmETgya+SVVlZW6enpz549G6yTIQi6a+PIpFLkyEiOhCgQphw5Hj16lJiYaG1tXVFRoXqVsVTpro0jk0qRIyM5EqJA+P0cb9686e/v7+7u3tjYOJBnQiiobePIJFTkyEiOBKFDTp48iWQzKirqt99+4/tYBha1bRyZhIocGcmRIHRLR0dHbm6uTCbLycl5/vw534czUKht48gkVOTISI4EMRC0trZy1x3W1dXxfSy6p7s2jkxCRY6M5EgQA0dTU5Onp6efn9+1a9f4PhZd0l0bRyahIkdGciSIAQXh1YkTJ2xsbOLj4yVz3WF3bRyZhIocGcmRIAaBtra2jIwMmUxWWFgogesOu2vjyCRU5MhIjgQxaLS0tISGhjo5OZ05c4bvY9GK7to4MgkVOTKSI0EMMufPn3d1dQ0KCrpz5w7fx9IfumvjyKRV5MhIjgQx+EAfxcXFyLLT0tKePn3K9+H0je7aODJpFTkykiNB8MWTJ0+SkpKsra3Ly8tFdN1hd20cmbSKHBnJkSD45ebNm7t373Z3d4dZ+D6WXtFdG0cmrSJHRnIkCCFw6tQpBweHyMhIZKZ8H0sPdNfGkUmryJGRHAlCIHR0dOTl5clksuzsbMFed6ihjSOTVpEjIzkShKB48OBBTEyMra1tbW0t38eiBg1tHJm0ihwZyZEgBMiVK1e8vLx8fX2Fdt2hhjaOTFpFjozkSPAIj10add7PUecgga2srLSxsYmLi3v48GFvHjIIZ6O7No5MckWOjORI8MgPPPX31m0n8AGlra0tMzNTJpMVFBSorbtWZKDPJ/bfXRtHJrkiR0ZyJHiE5NhL7t275+npiShS83WHgyDH7to4MskVOTKSI8EjJMdegvjRwsLi1KlTO3bsCAgIuH37ttppA30+w8IKu2vjyCRX5MhIjgSPkBx7ybFjx3744Qf26nO90tJSKyur1NRU1esOB+h81td3RUfnOzq6b968efv27fn5+Wr9KLEiR0ZyJHiE5NhLgoODf/75Z/nqkydPkpOTra2tIU3FL0AG4nzW1780N5c5Obleu3btxYsXuHV1dT148KCqHyVW5MhIjgSPqL6Z/fwOjBo1acyYaZMnGwcF5XEbd+3KNDGx1fnbPjPzUlTUMW48Z87ylJSfBCtHDw8P1RZhzc3Ne/bscXNzu3TpErdF9XzW1HQsW7Zp9Oipc+euyM5uKit74OOTpuE8yBdHx0hugJjR1NRU6anhR8SPShslVuTISI4Ej6i+mfGetLLai8Hhw9eHDjXIz7+Jsbt7YlxcDTchL+9GWFjR8eNPMMYt3tW1tS8wTks7m5JymtshHpuTcxVuLSm5z8U+0dEVubnXuD2kp5+LiirHozZscDQx2Q59VFY+s7Dw4yYLU44ymay7LuINDQ0ODg4RERHIslXPp7d36jff2GAQGlq4cuVWf/8sI6PFpaW/lZc/xJaEhHrcxZ2HoqK7OLecKwsKbr/zzt/S08+/+hdxV621xBZ3d3eljRIrcmQkR4JHNMiRe9N6eiYvXrxhwwan2bOXeHgk4e06cuTEbdv8x46dDtmNGjV5yxZv3FZVtQ8ZMmztWktDwwW2tiGmpjvGj5+5ebPHiBFjYMaJEz+B+7AlObkBQeikSbO//97188/XL1ny/cKF6w4duoK9WVruRniFwErpeHbuxN7EgbOzs+r5zMpqHDp0BPzIxYaOjj/gPBw4cOHDD6dgPG7cDPzV4c6Dt/d+MzMvzJk/fzUmv/nm0JCQAqyamalp3ci1dFTcIr0iR0ZyJHhEsxzXr7fz9U177bU31qzZtmDB1/AjtOjsHI27ENrIZHt37PgR42+/ddizJ3v48JEYh4cXYzLk6OubjtX33hsdH18LO2Dj1KnzzMw88c6HInFXfn6zk1MUFnv7cDgCEwwMxnI6EGDkiLRa7aUykNTRo0etrKwSEhLa29vVfuaIONHVNXbatE8XL/42KenU0qWmdXWde/fm/OMfznjJcCJ3HhBUyuV48ODlUaMmcQ93du5V5Ci9IkdGciR4RIMcq6raECQilIPgILKUlJ8QRSJ4lMn24F5r60BY0soqAOMVK8yQaHNv5piYE6tXW0CO3OeV2AOSREPDz7AHZJEIiNauleEW4SREACPg6bBbExNbTMAAcZYw5RgVFaX0E68vX76sra21t7cPDQ2VV/aonk+cClfXGAwqKh4hGIQcESe++oNhkJBQ98UXf8cp5c5DQEAudImZMCYnR5wlrMbF5bu6uiodDwJVpc8cpVfkyEiOBI+olSMS5DFjpiFZdnCIwBYY0Mho8YQJs2DAY8f+NWvWlwghV67cgnc7rDdjxqJ581bibYz5auWI2+XLNxsbL+My8bS0s4ihZs783NY2FDtEUJmRcQE7nDNnObYjPRemHAsLC+Pj4+WrFy9eRCzp7e19+fJlxWmq5xMh9pQpc8eMMcTLd3dPxCoU6ed34IMPJixduhEv2dJyN3ce4E38HUJ0aWAwLju7CWd11SrzV5/YdllaymBDxW+rZTKZ0rfV0ityZCRHgkd6WXpSXf28rq5LvoqgUu1Yw1JZ+UxxVf4o+UBpgtDk+PTpU0tLy4cPH968eTMwMNDJyenUqVOq07o7n+XlDxVPJv6W4HxioHRCFDdijnzc0PAyMzMfefSWLVtwi5hR9bNF6RU5MpIjwSNU59h7kpKSuCsIy8rKuvveYxAuH+zu8KRX5MhIjgSPkBx7A8LGAwcOIHJEdNbe3q5hJo9ylF6RIyM5EjxCctTMixcvCgsLZTIZwsbedC3jUY7SK3JkJEeCR3jv1dibhZcz8/Lly+rqajs7u4iIiLt37/byUXydDUkWOTKSI0EIjXPnzrm5ufn5+V25coXvY+kVkixyZCRHghAO169f37t3r4uLy+nTp/k+lj4gySJHRnIkCCHwz3/+Mzo62sbGpqKiQnT5qSSLHBnJkSD45cmTJ2lpaTKZLC8vT7C/yKoZSRY5MpIjQfBFR0dHfn4+tLh///7umu6IAkkWOTKSI0EMPkicYRNbW9uoqKh79+7xfTjaIskiR0ZyJIhB5syZMzt27PD397969Srfx6IbJFnkyEiOBDFowIZwIsyo+JsHYkeqRY6M5EgQg0BLS0tkZCTyaGTT3f16n0iRapEjIzkSxIDy6NGjlJQUmUx25MiRjo4Ovg9H90i1yJGRHAligGhvb8/NzbW0tExLS3vy5AnfhzNQSLXIkZEcCULndHV1lZeXb9++fd++fcg6+T6cgUWqRY6M5EgQuuWnn35ycXHZu3ev6o+pShKpFjkykiNB6IqmpiZfX183N7dz587xfSyDh1SLHBnJkSC05+7du+Hh4XZ2dtXV1RL7MrpHpFrkyEiOhK7gvfEiL/0cHz58mJiYKJPJCgsLVX/fWfJIuMiRkRwJXfGD4Nt667b3dXt7+6FDhywtLTMyMp4+fTqIZ1pASLjIkZEcCV2hP3Ls7OwsLS21traOjY1tbW0d9DMtICRc5MhIjoSu0BM5njp1ysnJKSgoqLm5mY/TLCwkXOTISI6ErpC8HBsbG729vT08PKT65Ww/kHCRIyM5ErpCwnK8fft2aGiog4NDXV2dvn0ZrRkJFzkykiOhK1Tl6OOTtnTpRm68YYNTVtYvunKWq2tsWFgRBlVV7RMmGJWW/jZAcgwPL4qPj7eysiouLtbDL6N7RMJFjozkSOgKVTna24f/7nf/4ed3AONFi0z27z+DQUrKT9yAW2pqOrKyGlNSTpeWtmK1rq4rObkhMPDwiRNPsZqefi4ysrS6+rl8PsaxsZXm5r6+vulYzcm5imeprHwGS2ZnN8XGVmGAHYaEFMCYr3b+S1TUMTwp9/D8/JvYkpZ2FuP6+pfR0RW5ude4J8rJ+ZUbKy5ubuEHDx5sa2vj++wKFAkXOTKSI6Er1Mpx0yb34cNHFhf/k5Pj4sUbEELOnr3EwyOJm3PkyK0//vF/TE13IACEs1atMjcxscUczPT2Tp07d8V337msWbONm1xb+2LUqMkbN7q99da7kCO8aWi4YOtWnylT5h46dOW1195YutTU3j4Cj7K1DRk9eip2/t///X/MzDzff/8jKHX37oNGRl98/bXVf/3XH2HGiRM/sbDwGz9+JnQ8ebIxHhUQkKs2rSbUIu0iR0ZyJHSFWjk6OUV5eaXMm7cScoyLq4G/YLoFC76GH+VyhKQwgOxg0vT081ZWAZiMjQjrhg4dsW6ddUbGRbmq1q61fJWkO2L+l1/+w9h4KXb4+ut/TUw8CUXirsLCOw4OEStXbsFG7JzbCAm6uyfMmbOcS+3h1vj4Wuwcj506dR7sOWXKHESO3X3mSKhF2kWOjORI6Iru5IjBJ598BVUlJZ16773R+fnNSHI9PZPlckQwiIGjY6Szc7SBwTioLSKiBAEd/IWZPj5pw4Z9wE1GaMl9iLl6tQXkiBjQ3T0RO9y+PTg19WcoGHch5MS9CCT/9Kc/Y+dGRoux0cYmyM0tfuXKrVFR5ci7//CHP2VmXjI0/AyPDQ0tRN4NOR479i+SY5+QdpEjIzkSukKDHBHN/eEPryGtRlQIW02YMIv7OoWTI7yJQHLGjEUlJfcRDM6fv3rZsk0GBmMRDI4bNwPKW7/eTr5PbsJHH30MOSLMRFptbLxsyZLvYUNOjvAgrIf8esiQ4RkZlxTliAgUq4gf//znIdi4fPlmPHbs2Om5uddIjv1A2kWOjORI6IpelvJUVz+vq+uSr3LBHaI5+ZbKymfycX39S8VVblGcrDS/uy3cggQfB4mYEW7VPJPk2BukXeTISI6EruhfnSPiNQSY/XhgPxYEsN98Y4OAETl4Lx9CctSAtIscGcmR0BUSLgIn1CLtIkdGciR0BclR35B2kSMjORK6gvfGi7z0c9RbJF/kyEiOBEH0A8kXOTKSI0EQ/UDyRY6M5EgQRD+QfJEjIzkSBNEPJF/kyEiOBEH0A8kXOTKSI0EQ/UDyRY6M5EgQRD+QfJEjIzkSBNFX9KHIkZEcCYLoK/pQ5MhIjgRB9BV9KHJkJEeCIPqKPhQ5MpIjQRB9RR+KHBnJkSCIvqIPRY6M5EgQRF/RhyJHRnIkCKKv6EORIyM5EtrDe8tF6uc4mOhJkSMjORLa84MUe4BTJ/Du0JMiR0ZyJLSH5KhX6EmRIyM5EtpDctQr9KTIkZEcCe0hOeoVelLkyEiOhPaQHPUKPSlyZCRHQntU5ejnd2DUqEljxhhisbUNWblyS2lpq1r7fPrpmhMnnhoYjOMmu7snKE3YsMFx6dKN3DgkpGDKlDkkR37RkyJHRnIktEdVjo6OkVZWe+WrcXE11dXP09LOpqSclk/Ozb2Wnd0Eh1ZUPBo5ciK2HD/+ZNiwDyoqHmMaVmtrX+zff2bhwnX/8z9vlpc/xJaFC78ZMmQYBvX1L6OjK7AHjOvqumJjqxIS6rBRcYy7srIa4dPS0t8wrqnpiIk5UVh4p6ioBas5OVexB25aevq5yMhSHKGqHN3cwuCC/Pz869evv3z5ku8zLQj0pMiRkRwJ7VErR4SECAOxQHaGhguOHr0Hr61da4kxYsk9e7KnT1+4apX5a6/9BXJ84423bW1DN250MzT8DMJ6//2PIMqgoDwTk+2Q41dffYf9IMA0Nl6KGBMTJk78xMLCb/z4mcnJDZhjYmKLaZijON65M27u3BV4rtGjp0J8uDUz84R8d+z4cfv24M8/X79mzbavv7by9k7FtO++c8GqqhwjI0vOnj2blpbm6upqZWUVHR1dWVn54MEDvk85b+hPkSMjORLao1aOc+Ysxy0WuI+T4/DhI3FXeHgxNAR1HjhwAatDhxpgwpAhw728UiwsdhkYjEU8CEt6eCTNn78qPf08TIfob9asL3180uA1yDE+vnbo0BHYydSp8+A7e/twbNy0yR1PoThGkOjgEIGM/vXX/xoWVrRunTWeDne92snY5cs3r15t8dZb7yJ+xN5wb0bGRc1pdWtr64kTJ6KiomQy2c6dO9MRcJ4719HRwd+J5wH9KXJkJEdCe3pMqzk5IoPGGLktrISYEUEfUt033xwqT6uxzJ+/OiAgF36cPNl4woRZr1LpdcjHp0yZO2PGomPH/gX3ZWZeQoCZn98cGloYFXUM85E+b93qM2/eSsXx4sUb8ESHDl3505/+nJr684IFX2NvK1aYQY4IPJG5Hz58HQcJ1aak/ATzIqjs5WeOyK+vXr2al5fn7+9vbm4eEBBQWFh48+ZNfci79afIkZEcCe3ptRwny+UIW82c+flnn61F1AY5/v73/zlmjOGIEWOMjL5AQo1pkybNRhgolyOyYyOjxViFHHGLuM/YeNnYsdOhUXf3RISQUOerLP7/jW1sguDQpUtNEZbCqmvXypDIw8KISQMDD+MurGJOYuLJceNmQKbr19v14wuZtra206dPp6SkODs7W1tbx8TEVFdXP3z4cFBOPA/oT5EjIzkS2tO/Up66ui5Ejmrvysm5OmGCEYym4eGVlc/k4+rq5/JdKY7lc0pK7pua7igtbYVSf/yxmnv2qqp27t76+peKe+uTHBVByllRUREZGWlpaenu7p6RkXHhwoUXL14M2InnAf0pcmQkR0J7dF7nCJEFBx/R7T5dXPYtWmTi6hrTp0f1r5Snq6vrypUrubm5fn5+yLuDgoKOHj1669YtXZ94HtCfIkdGciS0h4rANfDs2bOGhoakpCRHR8ft27fHxcXV1dU9fvxYFyeeB/SnyJGRHAntITn2knv37pWVlYWFhVlYWHh6emZlZV26dKmzs1OHTzHQ6E+RIyM5EtrDe8tF0fVzRN59+fLlQ4cO+fj4IO8ODg4uKSm5c+eObp9lAM5Gqf4UOTKSI0Hwy9OnT0+dOpWQkGBvb29nZxcfH19fX4+N2u9Z5xF9SMhh/SlyZCRHghAOd+/eLS0tDQ0NRTjp7e2dnZ3d2NjY70hN53LcsydNf4ocGcmRIARIZ2fnL7/8cvDgQS8vLwsLi7CwsLKyspaWlj7tROdy9PKK0Z8iR0ZyJAiB8/jx47q6uri4OFtbWwcHh8TERKThz5496/GBupJjfX1XdHS+o6P7pk2bcQD5+fn6cC0QIzkShIi4fft2cXGxo6Pjli1bfH19c3Jympqausu7dSLH+vqX5uYyJyfXa9euvXjxAreurq4IafXBjyRHghAZHh4ev/7668WLFzMzMzHetm1bREREeXn5/fv3Fadp2WeTGyBmNDU1VToA+BHx4yC+Yn4gORKEyJDJZI8ePZKvYlxTUxMbG2ttbe3s7JySknL69GlEeVr22fz3Q9wRLSodALa4u7sP7ovmAZIjQYgMc3Pz58+fq25va2srKyvbvXs3YsnAwEAt+2xyDzEz26J6eTi2IK8flNfKJyRHghAZSKXl0dzjx48bGhrS0tKwEdLcu3dvbm7upUuXurq6tOyzyT3E2ZkiR4IgREJoaGhycnJiYqKrq6uFhUVwcHBBQcGVK1eUrkTUss/mv1PvfDyL0gGYmprSZ44EQQiClpaWEydOxMbGOjg4yGQy+LGkpOTGjRsavjXWss+mvI7H0lIGGyp+W40DoG+rCYLgB9inubm5rKwsKirKxsbGzs4uJiamoqKi95dg66rPZkPDy8zMfOTRW7ZswS1iRj25vJrkSBBCAdK5evVqUVFRWFiYpaWls7NzfHx8dXW1Uo1OL9H5FTID1IZDsJAcCYJPkKs2Njbm5eUFBASYm5sjNEtJSamvr9f+txZIjlpCciSIwaa9vf38+fPZ2dn+/v5bt2719vbOyMg4c+aMTprxyCE5agnJkeAT3ts1Dlo/R4jv9OnTBw4cgAohRGgRcrxw4QJEqaunUELIZ0MUkBwJPtF5dCOoWAmpMRJkpMlubm5ImQMDA5E+I4mW2K9uSRWSI8En0pPj/fv3q6qq4uPjnZ2dLS0tw8LCioqKrl69qiff8EoJkiPBJ9KQ4+3bt8vLy/ft22dnZ2djYxMVFVVWVnbr1i19KAaUMCRHgk9EKkdY78aNG8XFxREREVZWVo6Ojtxvlva1Hy0hZEiOBJ+ISI6dnZ1NTU1HjhwJDg62sLDYsWNHUlJSbW1ta2srf+ePGEBIjgSfaNlz8MSJpwYG47jJ7u4JShM2bnT78MMpH3308cyZn6em/qx0b2bmpaioYz3JsfTixYs5OTl79uwxNzf39PRMS0traGgQ7w9PE72H5EjwiZY9BysqHo0cORFbjh9/MmzYBxUVjzENq7W1L/bvP/PVV99FRZVjNTa2CvfW1XVWVbVHR1dERJTU1XVt2OBoYrK9pqYDG8PDj5aU3FeVo5tbmJ+fX1ZW1tmzZ9va2vg+W8SgQnIk+ETLnoOQ4xtvvG1rG4og0dDws/r6l++//xFEGRSUB/HJ5Yhl2rRPESpOmjTb2jrws8/W2tuHL1ny/cKF6w4dujJ27HRLy92jR08tK3vQy88cCX2A5EjwiZY9BzFhyJDhXl4pFha7DAzGIqKEJT08kubPX5Wefl5RjlOmzM3Pb05IqMPMjz+e/803Nk5OUVhgyXHjZmC3eHhISAHJkZBDciT4RMueg/K0Gsv8+asDAnLhx8mTjSdMmIUtcjkePnwdBiwvf/iXv7wVGHhYJtuDOBRmxHN5eiabmNjCmxhkZTWSHAk5JEeCT7TsOQg5/v73/zlmjOGIEWOMjL5AQo1pyJ0RD2KAxPnddz/EvR9+OAVRZ11d1/jxMxcv3oBsGuFnWFgR9pCRcWH27CWIVZF3V1W1kxwJOSRHgk901XNQvuTkXJ0wwejYsX9199jKymfycVVVm+pGkiPBQXIk+ETndY6mpjuCg4/oam8kR32G5EjwiYiKwAl9g+RI8AnJkRAsJEeCT3hv10gdDInuIDkSBEGogeRIEAShBpIjQRCEGkiOBEEQaiA5EgRBqOH/AiMqjTvu6uUlAAAAAElFTkSuQmCC;" parent="1" vertex="1">
          <mxGeometry x="720" y="140" width="436" height="555" as="geometry" />
        </mxCell>
        <mxCell id="mp3EQZTlLxs9n79CeruY-20" value="" style="rounded=0;whiteSpace=wrap;html=1;" parent="1" vertex="1">
          <mxGeometry x="523" y="270" width="163" height="90" as="geometry" />
        </mxCell>
        <mxCell id="mp3EQZTlLxs9n79CeruY-19" value="" style="rounded=0;whiteSpace=wrap;html=1;" parent="1" vertex="1">
          <mxGeometry x="360" y="270" width="163" height="90" as="geometry" />
        </mxCell>
        <mxCell id="mp3EQZTlLxs9n79CeruY-22" value="" style="rounded=0;whiteSpace=wrap;html=1;" parent="1" vertex="1">
          <mxGeometry x="523" y="180" width="163" height="90" as="geometry" />
        </mxCell>
        <mxCell id="mp3EQZTlLxs9n79CeruY-21" value="" style="rounded=0;whiteSpace=wrap;html=1;" parent="1" vertex="1">
          <mxGeometry x="360" y="180" width="163" height="90" as="geometry" />
        </mxCell>
        <mxCell id="mp3EQZTlLxs9n79CeruY-24" value="" style="rounded=0;whiteSpace=wrap;html=1;" parent="1" vertex="1">
          <mxGeometry x="523" y="90" width="163" height="90" as="geometry" />
        </mxCell>
        <mxCell id="mp3EQZTlLxs9n79CeruY-23" value="" style="rounded=0;whiteSpace=wrap;html=1;" parent="1" vertex="1">
          <mxGeometry x="360" y="90" width="163" height="90" as="geometry" />
        </mxCell>
        <mxCell id="YQOzpw63EG1Gb3oN7JPL-9" value="" style="rounded=0;whiteSpace=wrap;html=1;" parent="1" vertex="1">
          <mxGeometry x="523" y="450" width="163" height="90" as="geometry" />
        </mxCell>
        <mxCell id="mp3EQZTlLxs9n79CeruY-14" value="" style="rounded=0;whiteSpace=wrap;html=1;" parent="1" vertex="1">
          <mxGeometry x="360" y="450" width="163" height="90" as="geometry" />
        </mxCell>
        <mxCell id="YQOzpw63EG1Gb3oN7JPL-2" value="&lt;div style=&quot;&quot;&gt;&lt;font style=&quot;font-size: 14px;&quot;&gt;Signaler,&amp;nbsp;&lt;/font&gt;&lt;/div&gt;&lt;div style=&quot;&quot;&gt;&lt;font style=&quot;font-size: 14px;&quot;&gt;Bloquer, Exclure&lt;/font&gt;&lt;/div&gt;" style="text;html=1;strokeColor=none;fillColor=none;align=center;verticalAlign=middle;whiteSpace=wrap;rounded=0;" parent="1" vertex="1">
          <mxGeometry x="523" y="90" width="163" height="90" as="geometry" />
        </mxCell>
        <mxCell id="YQOzpw63EG1Gb3oN7JPL-6" value="&lt;div style=&quot;font-size: 16px;&quot;&gt;&lt;font style=&quot;font-size: 16px;&quot;&gt;Groupe &lt;br&gt;&lt;/font&gt;&lt;/div&gt;" style="text;html=1;strokeColor=none;fillColor=none;align=center;verticalAlign=middle;whiteSpace=wrap;rounded=0;" parent="1" vertex="1">
          <mxGeometry x="523" y="180" width="163" height="90" as="geometry" />
        </mxCell>
        <mxCell id="YQOzpw63EG1Gb3oN7JPL-10" value="&lt;div style=&quot;font-size: 16px;&quot;&gt;&lt;font style=&quot;font-size: 16px;&quot;&gt;Sourdine, Ne pas déranger&lt;/font&gt;&lt;/div&gt;" style="text;html=1;strokeColor=none;fillColor=none;align=center;verticalAlign=middle;whiteSpace=wrap;rounded=0;" parent="1" vertex="1">
          <mxGeometry x="523" y="450" width="163" height="90" as="geometry" />
        </mxCell>
        <mxCell id="YQOzpw63EG1Gb3oN7JPL-20" value="&lt;div style=&quot;font-size: 13px;&quot;&gt;&lt;font style=&quot;font-size: 16px;&quot;&gt;Vidéo&lt;/font&gt;&lt;/div&gt;" style="text;html=1;strokeColor=none;fillColor=none;align=center;verticalAlign=middle;whiteSpace=wrap;rounded=0;" parent="1" vertex="1">
          <mxGeometry x="523" y="270" width="163" height="90" as="geometry" />
        </mxCell>
        <mxCell id="YQOzpw63EG1Gb3oN7JPL-22" value="&lt;font style=&quot;font-size: 16px;&quot;&gt;Insécurité&lt;/font&gt;" style="text;html=1;strokeColor=none;fillColor=none;align=center;verticalAlign=middle;whiteSpace=wrap;rounded=0;" parent="1" vertex="1">
          <mxGeometry x="360" y="90" width="163" height="90" as="geometry" />
        </mxCell>
        <mxCell id="YQOzpw63EG1Gb3oN7JPL-26" value="&lt;font style=&quot;font-size: 16px;&quot;&gt;Relation&lt;/font&gt;" style="text;html=1;strokeColor=none;fillColor=none;align=center;verticalAlign=middle;whiteSpace=wrap;rounded=0;" parent="1" vertex="1">
          <mxGeometry x="360" y="180" width="163" height="90" as="geometry" />
        </mxCell>
        <mxCell id="YQOzpw63EG1Gb3oN7JPL-30" value="&lt;font style=&quot;font-size: 16px;&quot;&gt;Calme&lt;/font&gt;" style="text;html=1;strokeColor=none;fillColor=none;align=center;verticalAlign=middle;whiteSpace=wrap;rounded=0;" parent="1" vertex="1">
          <mxGeometry x="360" y="450" width="163" height="90" as="geometry" />
        </mxCell>
        <mxCell id="YQOzpw63EG1Gb3oN7JPL-40" value="&lt;font style=&quot;font-size: 16px;&quot;&gt;Caméra&lt;/font&gt;" style="text;html=1;strokeColor=none;fillColor=none;align=center;verticalAlign=middle;whiteSpace=wrap;rounded=0;" parent="1" vertex="1">
          <mxGeometry x="360" y="270" width="163" height="90" as="geometry" />
        </mxCell>
        <mxCell id="mp3EQZTlLxs9n79CeruY-5" value="" style="rounded=0;whiteSpace=wrap;html=1;" parent="1" vertex="1">
          <mxGeometry x="523" y="540" width="163" height="90" as="geometry" />
        </mxCell>
        <mxCell id="mp3EQZTlLxs9n79CeruY-6" value="&lt;div style=&quot;font-size: 16px;&quot;&gt;&lt;font style=&quot;font-size: 16px;&quot;&gt;Notifications,&amp;nbsp;&lt;/font&gt;&lt;/div&gt;&lt;div style=&quot;font-size: 16px;&quot;&gt;&lt;font style=&quot;font-size: 16px;&quot;&gt;Appel, Déconnecté, En ligne&lt;/font&gt;&lt;/div&gt;" style="text;html=1;strokeColor=none;fillColor=none;align=center;verticalAlign=middle;whiteSpace=wrap;rounded=0;" parent="1" vertex="1">
          <mxGeometry x="523" y="540" width="163" height="95" as="geometry" />
        </mxCell>
        <mxCell id="mp3EQZTlLxs9n79CeruY-9" value="" style="rounded=0;whiteSpace=wrap;html=1;" parent="1" vertex="1">
          <mxGeometry x="523" y="630" width="163" height="90" as="geometry" />
        </mxCell>
        <mxCell id="mp3EQZTlLxs9n79CeruY-10" value="&lt;div style=&quot;font-size: 11px;&quot;&gt;&lt;font style=&quot;font-size: 11px;&quot;&gt;Ajouter contact,&lt;br style=&quot;font-size: 11px;&quot;&gt;Media,&amp;nbsp;&lt;span style=&quot;background-color: initial; font-size: 11px;&quot;&gt;Réponse,&lt;/span&gt;&lt;br style=&quot;font-size: 11px;&quot;&gt;&lt;/font&gt;&lt;/div&gt;&lt;div style=&quot;font-size: 11px;&quot;&gt;&lt;font style=&quot;font-size: 11px;&quot;&gt;Réaction, Image, Fichier Vidéo, Gif, Vocaux,&amp;nbsp;&lt;/font&gt;&lt;/div&gt;&lt;div style=&quot;font-size: 11px;&quot;&gt;&lt;font style=&quot;font-size: 11px;&quot;&gt;Autres fichiers, Find, FindByMessage, FindByDate&lt;/font&gt;&lt;/div&gt;" style="text;html=1;strokeColor=none;fillColor=none;align=center;verticalAlign=middle;whiteSpace=wrap;rounded=0;fontSize=11;" parent="1" vertex="1">
          <mxGeometry x="523" y="630" width="163" height="90" as="geometry" />
        </mxCell>
        <mxCell id="mp3EQZTlLxs9n79CeruY-15" value="" style="rounded=0;whiteSpace=wrap;html=1;" parent="1" vertex="1">
          <mxGeometry x="360" y="540" width="163" height="90" as="geometry" />
        </mxCell>
        <mxCell id="mp3EQZTlLxs9n79CeruY-16" value="" style="rounded=0;whiteSpace=wrap;html=1;" parent="1" vertex="1">
          <mxGeometry x="360" y="630" width="163" height="90" as="geometry" />
        </mxCell>
        <mxCell id="mp3EQZTlLxs9n79CeruY-12" value="&lt;font style=&quot;font-size: 16px;&quot;&gt;Adulte&lt;/font&gt;" style="text;html=1;strokeColor=none;fillColor=none;align=center;verticalAlign=middle;whiteSpace=wrap;rounded=0;" parent="1" vertex="1">
          <mxGeometry x="360" y="630" width="163" height="90" as="geometry" />
        </mxCell>
        <mxCell id="mp3EQZTlLxs9n79CeruY-8" value="&lt;font style=&quot;font-size: 16px;&quot;&gt;Defaut&lt;/font&gt;" style="text;html=1;strokeColor=none;fillColor=none;align=center;verticalAlign=middle;whiteSpace=wrap;rounded=0;" parent="1" vertex="1">
          <mxGeometry x="360" y="540" width="163" height="90" as="geometry" />
        </mxCell>
        <mxCell id="mp3EQZTlLxs9n79CeruY-17" value="" style="rounded=0;whiteSpace=wrap;html=1;" parent="1" vertex="1">
          <mxGeometry x="360" y="360" width="163" height="90" as="geometry" />
        </mxCell>
        <mxCell id="mp3EQZTlLxs9n79CeruY-18" value="" style="rounded=0;whiteSpace=wrap;html=1;" parent="1" vertex="1">
          <mxGeometry x="523" y="360" width="163" height="90" as="geometry" />
        </mxCell>
        <mxCell id="mp3EQZTlLxs9n79CeruY-2" value="&lt;div style=&quot;font-size: 13px;&quot;&gt;&lt;font style=&quot;font-size: 16px;&quot;&gt;Audio&lt;/font&gt;&lt;/div&gt;" style="text;html=1;strokeColor=none;fillColor=none;align=center;verticalAlign=middle;whiteSpace=wrap;rounded=0;" parent="1" vertex="1">
          <mxGeometry x="523" y="360" width="163" height="90" as="geometry" />
        </mxCell>
        <mxCell id="mp3EQZTlLxs9n79CeruY-4" value="&lt;font style=&quot;font-size: 16px;&quot;&gt;Micro&lt;/font&gt;" style="text;html=1;strokeColor=none;fillColor=none;align=center;verticalAlign=middle;whiteSpace=wrap;rounded=0;" parent="1" vertex="1">
          <mxGeometry x="360" y="360" width="163" height="90" as="geometry" />
        </mxCell>
        <mxCell id="IkM95aY9ZOoL_im3c5KC-1" value="" style="shape=image;verticalLabelPosition=bottom;labelBackgroundColor=default;verticalAlign=top;aspect=fixed;imageAspect=0;image=data:image/png,iVBORw0KGgoAAAANSUhEUgAAAPMAAACVCAYAAACNW8x4AAA610lEQVR4nO2d91eU2Zb351+Z32atd9b8MLPmzswNM/f2vbfD7ZzsbjtpK+acc86iKGbFrCgqNBlBlChgaCUYMGfMoiiKIJx3f3b5QFFUSYEUFHD2WmcBVU8VUOf5np2+e+9/MlasWOkS8k8d/QdYsWKlbcSC2YqVLiIWzFasdBGxYLZipYuIBXM7SFVVjSkuvm7y8i4EfJ08edU8f/6yo//lTimPHz83x45dbpd9am6dO3fb1NbWtejvt2BuB3n6tMrExhaZuLhLZv/+mwFbCQlXTHT0CVNe/qyj/+VOKbduPTK7d/9mEhOvB3SfmlvR0aXmwIHTpqbmVYv+fgvmdpCnT18IkIvNoUNPzNGjrwK2srOfyY1QZB49smBujdy8+dDs3VsimvFlQPepuZWaetekpVkwB6VUVr6U0/6Uycl5IWawMb/9Fph1+PAL8+uvxRbMrZRbt8rlMDylgArkPjW30tPvi2Y+Y8EcbFJXV2fu3n1gdu7MEKCdFe1Zbo4fr9VNO368YXn+3JqVm/vcgrkV8vz5c1NYWGh27Igyc+euNhER+8XcvSqfaV1A9qm5deDAPQvmYJOXL1+aY8eOmTVr1pqxYyfJmmZmzw4327dniRZ9Wn9j8PXEiaY3jgVz4OXRo0cmPj5eABwh1lOSaMWD4jfvMcuWRZg9e47I51pT//meOOF9n960f462dTS9BXMnlJqaGgHsYTN16lTTr18/07dvX1l9TEhIXzNixFi5eZJNfv5zvUEyMx+b+fN3mZiYs7KZr17fHA3LuQm4IVgWzG0jaOT09HSzadMmc+7cOVNRUWGqql6YBw/ui0uUbVasWC/+67l6oMbFXZR92i2vuaf7wmcuCl0+93KzeXOuSUm5Xg9avublVYi2P2727TsjPvAdc/Dg/fo9fRO4LZiDTG7fvm0WLVpk+vTpo0AG0KyQkBD5+RczfvxM2dzbsrG1Zt26TPM///OuGT58kd4AbHRW1hOTkHBJNvWuHAqV4sdVm+Rkoqy3RNvXeL0RHDA/fPjM1NbW2tXMunnzptm4caPswQl1h9zlyZMnqrE3b47VPcrPf2YmTVpnfv/7901YWLyAuE724ZUcxA/Nli05ZsCAWWbDhkzZA1eQs6CgSjT9RXnNWjnQN5px41aYpUvjZJ9eyp7ekeeuyTUv6w8FC+YglVeviEoeFQ08ohGQGwCNdh4vG3ZLtfOIEYvNL79MMl9+2V9uoMu62cOHh8pjk8033ww1S5bEycGwV143Xd5vmlm9Os0cOVLVBNBOACw396iJjNwp5vx2u3ysHTt2mFWrVgkww9TU9hTAjh8dFhYhe0kA87L56adxpnfvCbIP00RzV5hdu07Kfk43338/0rzzzpcK2lmztssh/VCAnWVmztxqxoxZbgYPnms+/PBH07//dHG5DsgeYq3NMPPmRer+e+6jBXMQCWDOzMw0Q4YM8QnmUaMmKJhjYy+Z99//TjT1KvPBBz+IT73TLF4cY3r1Gi/m30G5UUboDfPOO1/ojdSz50jz9deD5LW3m5jcLs1cZIqLS+X7XJOdnS03XY5dPta+ffvElF5h7t+/73UPj8uHGh6+WQG3YkWqee+9nmbs2BW6TytXHhCtu0b2cbEANMl8/nmIHMqhYolNEeupTM3xQYPmikZepWvIkHmyxyv10P700z5y3WTz8cc/i19e0mQfLZiDSDjVT8oOjR49Ws1sX2BOTb1hFizYY/72t69ls+eaHj2GmC++6G9Gjlxihg6dLzfcdbl5wgTYE8y///v/yWuWmgkTVstzC8yhQw+amGgNZnaFBt/s8r2qq6vNjRs3xIzeLK5NnoLXXR4+JOe8VwCfIi5PmQBzjvnoo590XwDjzz+PU7AuXBgp+1iqPw8f7rKwkpJummnTNqnpPW7cSjN58gbdt2nTNupBjCafOnW9GThwjhJEPPfRgjnIhJshPDxcfWSWC8ghugiETZ06X0zq83oTzJu326SlXZFTush89lkfOQSWmW+/HS6bPU01MuD97rvhchOMFu08SW6OdQLciibmmQPm8vLKjv73O4UA6Pz8fHFbVmvW4enTCg1cEu9ITCTCvcGUlJQJqAvNV18NEv86W0zo62b58mQB9s966PbsOULM5ynm3Xd7CFgjdJ/6958pmrqvgHm2WlzTp2+Wa5fKXo+XQ3uB+eST3mpy8717MM2COUilqqpKfKpdsokjZeP6N9LM48ZNlefyxBQvN+vXZ8kN8sgUFbGRtWbr1sNi0qUooMePDxcTvKeZOzdSNMQp8Z1jNIgSF3dZgy82mv328vTpU3VHNmzYoFHtrVu3appq586dclieM6WltaJ5b8vz2aagoFpcGFf2ISIiW0B+Rvdqzpyd+jUx8aq8R67uV3h4iomMPCkH9GlxpS6a3buL9ZqYmPPihyeY0NBYExVVrMFMGwALYsHMPnPmjFm7dq3JyMiQlS0+1m452Q+YHTtyRSOXyo3xQjayTqPUjXOSNRoEGzZsoWj0qXrKczOcPFknr3mmUVVfKQ0L5tYJB++1a9dES2bJPu2Tw/Kk7M192UMXuefYsdpG+wSZxAVCHq/SDMSxY9X1j/MzQTPSjK5Dt1a/FhQ812uOHHkh18AzaEoesmAOMnnw4IH6YqmpqebZs2eyqgSgReJ7VSgJwSESOEQE943kZ26cpKSrcvKfNvv336hPRTl5ZgvmwMiNG/jJxQK6mkZBKSfv7/mz85VrnZ+dfXL/2VnOY83towVzkAjBlf3795stW7aYO3fu6GPPnr0UMJcImDmN616f4L4Xzzs3hOumevP1zsrJqRQzzoK5teJwswGzP593oBbcAgvmDhbM69OnT2tAha/8jFAC+euvJ9Vvio4+6+cqFWCW6ld/XxMVdUp8tGM2ANZKoQRy586j6gv7v09tvyIjC01a2ikBc22L/n4L5jYUzGs0MuY1VEFHOGGvXLlvSkvLtOg8UIv3v3TpnlgHNR34KXReobrtwoU78jkGbo/82UMWVkJty7BswdxWgnkNiImG3r17t8nzdI149ao24Kul3SmsNBasqfbYp0DsowVzG4i7eX3q1Kl689qKlfYUC+Y2ECd6nZaW1si8tmKlPcWC+S3FiV77Mq+tWGkvsWB+C/E0rz3L6KxYaU+xYH4LcTevKyttOshKx4oFcyvFmtdWgk0smFshmNeY1WvWrLHRaytBIxbMrRAbve6aQsijo/PLb5NrtmBuoWBep6SkmG3btlnzuosJnPasrFJz8OAZWWc7cJ0x6emndaQRoPZXLJhbIO7mtTv32krXELjZUVEntO1PWtrdDlkUWdDJMybmQounWlgwt0Ac8/rAgQPWvO6CwniafftKTH5+tdYwd+RygduCOSDibl7fu3evo/8cKwEQwOyUQL7NMIK2WK2pabZg9kPczWs6iFhySNeUBjBXewWYZ7MBC+ZOKLRiteZ115c3gdkF3hpt9+TqWV7bBOSuJhKuNkGNX9cU/M0dBhbMARDM6+TkZG2cbqPXXVsIgHkDMx1fsrMfm7CwODNgwAwzdOg8s3Vrgfb4cuZPucbUVJiIiBzthc3EC1droLr6WVRO6yHPny2Y20Ewr0tKSmz0uhuIa1wNmrm4EZgBXH5+pVm0aI/57rthAugYM3HiavPzzxNMUtI1k5PzxOzde0q+v2LS0q5rk/xFi/aZjIy7Ji7ugvn11/MaoY6JOSePPVRw092T1zBqyF2LWzAHUKx53bUFANM7u7y8XA7tYrNvX7zZtOmQmNENATA07v7917Rf+dy52+WxSgHjfbN7d6Fo4GIB73IdG8SEiiVLftWpFZMnr9fuqgw0oN92jx5DtT/66NFhOkSOcUQ//DDK9O8/Qyy+Y6qlLZgDKO7mtY1edx0BwOwtQwqKiopMbGys9szeuDFCTOfdsnKagDk+/oJOoVi//qCA3tVkEb+Z4W8zZmwVkC43n3/eT2dKobUZEte790SdagGwe/QYbNauTdfHxowJN3/600dm4MDZ5ssvByjo8bPbYt6UBbMXcTevbfS68wujZ+iNjaXFxMeYmBgB5nqdAMmkRwbE3b5dZi5eLBPN2djMBszp6Td13tfkyWtVMzPdEcBOnRqhIGcszXffjdCBcmjmsWPDdZzN+vWZZsWK/fL8Ajk0Sk3fvlO0D/of/vCBjqoZNSpMG+YfPdrU1LZgbiNh05luwOxea153TnEATNCSAXAMiQPA7GtiYqIpLi7WVshMtHDmTJWVPW4SAHM1wa8WzXpQTOaBahrjO//001idzMmomX79ppmPP+6tc6YmTFgj2nmtAjwiItesWnVAtPEy8Z3P6GyqOXMidabYDz+MVtOciZ6u9ssWzG0ugTKvaZtaXf2qW6+W8IxbKlhPgPLFixc6K+rIkSPi0+5RABP3gPADV4A9ZTCB56A4xFdqCkAzCZJxM0uWxJrlyxNNQsIVk5X1SN77sAA2Tb4WmF27CnX6COODoqPPiTK4r9RMgmCMgN2376w+RivfZcsSzZYtBSY7+0mbzWi2YHYTd/P67NmzbRa9fvGCkSUXTWrqKdmg091y8b/zGVRVtV0bYAfAWE+3bt3SIXC7d+8269atq295zD5iadE8orn9bC7PjAY9cuS5jp5xhhSQe2bcDGkqV2S6VvPNrjx0XaPVMI6m9vV4ohqf6SkL5reUQJnXT58yBL1QzLvrOvWvOy6CRbGxhaIVX7zVZwmAmdTI/ly/fl3nUEdGRiqAodqyd+fOnVMevT8Adhd/GGCuvHLj8ULeRtE0tzzfx4K5DQXzOikpKSDRayZaxMUVm8zMCuPvqJmutjIzn+hnwMHWUnEADDivXr2qUxt37NhRD+BDhw6Z8+fPa4QakLc2YAmY9+4tMYcPV4n2fdWha//+O7bQojXimNdMbSR63dbkEGZNJSSUyE1Y+cbTuCsvhubFx/sPZvbAAfClS5d0mibAZY8Yt5qVlWUuXryoAMZPbouMQ1lZuZjpR8XXPiX+7ekOXZGRJ7SuuSUjaiyYRdDEpCkCEb3mhrx69YaY70lm165jctreEh/rZSNAt4bAH6wHgq+/yx8wOwAmQIWmPXjwoPq+aGBM6ZycHHP58mUlebQVgN2lqqpaTPeHsl8PZN3v4HVP7ssK05J/sduDGfOaVEUgzGtuyoMHD5n58xeYoUNHmmHDRpqJE2fLzRkvN7eL2gdhgEhpXt4zXc7c5uYASxCG6zwPAG+vaY7k/6bXtORa1/fe6Ym+wOywsCoqKtTXhW1H3GL+/PkmNDRUfeIrV66Yx48fa6op0Dl/3p92PR29+Dta+r92azBzI5FvDIR5zQ1Kj7DRo0ebvn37mpAQ1+L7QYOGmpUr9+pQ7q1bjyghoX//aZrDnD59k3J3XST92kZzgAGFi/T/1CxfniQHxf16on/D/N/aRte6nqtrFHhxH/LterzW5zWeBQKu92/4fe6/MyfnqWjQ3wSAlT7BzKxqblI+nydPnmi0mbQRlhFpJPLBRKV5LCIiQvPAVvyTbg3mQJnX3KxEWmfNmmX69OkjIA4RwParX337/mLGjZsqYCyTa7abb74ZalasiDcbNmSJP3jCHDr0SKO/u3ZBNzwvPz80qam3RRvXaL6SXOby5cna3iY+/rJyhHlNcvINfX1q6h2NyKak3NQRoYySzc19pjlOcp47d/6mEWZSJLw3+VHyplAUnaKA3buL9P0pCEhJuWFIvQBWHudvys9/oe/Btbt2nZT3eaA846++GqA+pycRAjATALt9+74enOTy0cBQKaOjo+V/O2pu3LihGhoNDMh5zoLZf+m2YA5k9BoNX1BQIGb1MAWzO5BZaOjRoyeI5r4pmniL+fLL/mbZsmgxvw8qeAAFJP0ffxxjvv56kJk9e7sZMmSBgOuGWbo0TitzXHTBLPPRRz8rpXDWrG3KSurde4L55ZfJqvF//nm8Pgc3eN68SKUgfvFFP9Oz50gzYMAsAXapGTx4nr6OazdsyFC20qef9lG202ef9TG9ek1QZhMAHT8+XN5vlF67dGms/A/LlJPMY4MGzZa/c4f53e/+KlZHqoLf3fzOyXkmWve4vE+MmTx5sgkLC1MT2gEwvrK74DOT70d7W/FPuiWYHfO6rckhjnBQoO0HDx6sZrV3ME/UYNiMGVvMX/7ymYBrqhkxYqFo6ESzenW6gKm/aLx8AfFcM2rUMgHcOGUfAdT586OUCwyg3n//O9Xow4eHKgc4Lq5QDpBJSieEYrh27SGzYMFe5Q0DQnjDAB2gTp++2fzpTx/qwcCBQvUP4IVfzO/ioNi4MVcLBCZNWmd+//sP1CX48cexCvaePUeYCRNWi4bN00MiPDxFrIwhckheb+Jb4xrExp4UDXxCBwcsX75cg1ukmbBiCGg5rCxnfzCzAboV/6RbghlNHAhyCNrl0aNH6vNxsw4cOLCJid0YzDfNzJlb5ecpYuZiql41GRm3ROMekkNgkvx8zUydut5MmRIh120zH374kwIIsxmNGxoaqz9TSztq1FIB6jJ5/WU5RGaq5kUjQy3ctOmwkvzRsKGhMWLi3tTnxo9fbf73fz8RTblOQQ64+/Wbodof66BPnyli7l+W/2OWGTlyqfnv//67aPeVej0/835hYQnyt19VvvLKlWnydbia957MJpfPXCKa9rmazmjkw4cPa5rJSTfxM0wugl2ZmZkmKipKTW4r/km3A7MTvYZ00FbmtQPivLw89cHhAnNQrFq1SkA14HUALOT1cgXCZs5cKjf4XTNnzk7z97/3MP37TzFDh1JCt1I7WgwZMk986uty3WatrImKKhEN/oWAe4OA5ZZq6GXLkrTONi2tTEz0DAXosGFzFeArViSrRo2Lu6QcYMrzBg6co7zipKQbqoHR2t9+O0y/ZwHMESNC1R/fseM3NcEB8/DhC7WogGs4RCgQwNcfNmyRVgXFx19R8z4iIlvM7hC1GI4cqW6knd0DYO57QZrJySOjsQmCOZqbiiZfPGorTaVbgRnzjRpWNEFbmNeAGNICmhgQs8iFUqmD2chNunLlSgHDCAHSYI1iDx48TAC50MTEFGk1Dlps3bpDWj2Deb15c76CLTb2gqapkpOv6zV5eS80+ETQKS+vykRHl2o7Vsj7+flVmt7avv24+qv4twSruAZfNSOjXPzjC7p4zeHDL/R1LtP3gvzeA/LaowK4cg2oURyQmVmuwbLDhys14Hbw4AM1n9escf2N6ekPVOtDOzx8+Lm8X6n+nh07jmshASwmf/PMBAzRwByIFy5c0BleTNYMDw/X6DZli9AzucZ2e/Et3QrMjnkNGeFtzGsHxI4mdgcx2sYRbjx+58mTRaK1EgWMxwQYpwUIZXKzV79O9xD1rRFgv3y9qjXK7ORrXSmjuteppjq3lFKtx1fX90Sknesacr6kl2obvZfzHObw0aNV+je40k1OgUDj3+Gkolz57er6wgPP9+MrBQStIY0gAJuDEGBz4BKkxHdGY8fFxWnlE8/xObc1sPndL1/WBM1qCZUT6TZgdqLXb2Nee9PERGQ9Qewp0Dm5kbOynjXK5zogdPK1nqT9BpD6/t6TMOJOF/V2rbfnnN/7pms9CwTe9Pd4I5a0lM6JAFYOXfaLgBhdQQA1KStSW6WlpRrtJmfdFsC+f/+p8qGTk+nP1XErJaVE/oZi+dyu2PE0nvK25rW/mtiX4CdyIx86VK4N1rvjIg8eF1fUqkILBL8Z/5mGAr/JaUFuGponlhbkHMxzngfYrS+0eCTW00l5v3tivT3ssJWe/lAOrkvyd5yyhRae4pBDWmpevy2IHXGBudBERRWKD3iqWy7+94SEQlNZ+fbRafaFiPjNmze1CQE1zBzUBM6IglNZRYEG17UE2K7xNKd0PI1nLXJ7L8g71IFbMLuJY16T+vDXvPYGYsxpXt8SEDuCqXTnzhNz48bDbr3u3n3S5t1GHFrotWvXdI9wowA2X0l1kQLjAPckpXiT5uqZ23PZemYP8TSvmzul2xrE7sKvdsjz3Xe91UfYrLBH5KiprHJSXRCD0NzQRWkn5E5O8ZTmOo14xjV8AbEtqt/aFMz0bKLFC2Vhwb9qvA6mxhz2x7wOJIittL84qS5y2PjSVGKR++dQd1Jd7K0nsH1NtMDsLSio0ob3OTmPtSm+Z7GKcy1VcPDgSRc2B2pXJuBVYMGMKUQkLSmp2CQnl2h0L5gX/aUePGhMyGczExIS3hi9BsTkLz1BTPsgC+KuIVhnTqrLKfBwKrSIjtOUwpXqqtIAmCeY0cK5uU/MggW7zY8/jlaqLPz1qKhiN0C/qq9Oo+kf9FgINK504KtGlW8NAK9V/gDcgYC22uUNcL4hEFBVE8yLf5oIJKeq+wZiXjvca0/z2pcmBsT4YFa6pjjA5gAHxOStAXVEBKy6ZJOdTTDtt0YjXembffDgLeWkDx48W+6VAzqRApZdauotLUPdtu2oYiU9/bYZPnyRFqowbyo+/pI8d0TptmhrmHuQfyD0UHk2Y8ZmZc5lZDxqQn9tUzCnp5/RiFpHR/WaW5yiRCDdwewreu0OYogIXEOQxIK4+wnmNRFvXLETJ06q+b1ixVqzYUOqOXKkwfR1NcG/oRMoFiyINKdOVQsQi7XvNWCkFzZ8dHjqc+bsUHosYF60KFoPAB6HFw+7b8yY5drUkaFz0Gt5nkKZhIRLWr/eDmDu2KhecwswYxo5YMY8dsxrQIoAVKuJrfgSV6uip6KtL4hmPi7+bmPNDJgxnRcv3iOWnjFpaVe1io3Ktd///h9myJD5CmjmSU2Zsl6rzuC2M5oGsH/wwQ9aLNO37zTlyq9efVBAPtHMn79LOfgu1l4Hgdkzsucv8FrSt8rfa93BjDnNqBHIBLSgcUCM9kUTsyyIrfiSsrKmPrMDZqrQZs3aLEB/qFVtlHwyJ+qPf/xQi18mTFil42qoK0cD8xVTnCIVSlGpNKMKjWq0efN2axHM4sXRoqHnvJ733AFgdhz+w4crTGbmI43sNXB5m+sZ5X0Qta/f4f6+zYGZ0SLO1EbMa6cpOlrYgtiKP+ItAAaYMzPv6Iyof/zjewHkBO0Mw1A4OrzQQIJmD9SCL10aLwCNMZMmrVUw01iid+/xWhe+YMEerUL79tuhOjAOjcxUC5o70JCi3TWza+7OK7NlS74ZOnSBjqWcMGGl2b//Zn3PKqJ3DTxeV+jdxUeu1Qgg7XAAdMNzDYR9R+NTqUNQgUod1/u+8jr20h3MV6/eVXIIQS8iluQYg8UnJv4Gcf7Fi+qgXvyN3XlGnrc8M/ckRTFUl23cmG02bcoVEJ+W++qZYoF2S5SfEpWmCg3MMHeZwBg42bIlT8F64MB9nee8fn2Gtm2iAo37e9s2Orbebn8wAyyCTZwu06czBjNTo3HMpc3MfKhgxbnPyHgg/5irVxU/U5JH6R5mxpQpG+SfcPWO4jke55+inI7J80T+XHWx/QSYB7X31Y4dx7R8r6DgZRMtTeQxJob0VI6ZOXOm/F3TVROjlYla+sP8CbQ8f14tn0+pbHyx/H8lQbkSEopk386aysrum5J7M2nEyQnX1Dc5dJRWQ6VbwwHgWJeuETR19UrLVXFW6/b6xtZqu4G5qKhO7P0dalIkJ5+Xn1+pVk5OZk7tJvUDiOaRh6PQnUHT338/QvyLEDU/Pv64l+nbd6pG/TBPCCBgbtDLih5SdNUgaoiZ8sc/fqS+B4XwtLuh7Q2A9gQzs3Th/YaGrpb3Gmzmzp2rATCqbDC1ofoRtSTv3FbVNS0VZzxNcvItLbYIxkXzvujok9oJpLuKA2buqeZGyrT2cc/HPJ93DoOAgplfcPJkrfgKG8TxXyA3QJk5fdpoAT1tY774YoB2t2AyPD4FXS0ArKuP1WxtShcSMlWdfgBPz6mhQ+ebd975QjUxPsi//dv/6EhM3qNXr/HahobOFqQBaEaXmHjVq2Zmpu7OnTEC/tFyEEzU3KHTPJ3vd+3apQXvNNmjbI7KG3pLkbYi+t1SQn5LxVVoUWKysp66/f0dn9ZzX67cZ3G3B/PevcXyWVSKZfeyQ1dKSlnbjKfxpZkJBqxZk6ZRuu3b88VveChm7UZtHvfeez21CwWlW4C5f/9ZmktLS7soAFspYN6pGn3hwijz9dcDFaD0nOKa3bsLdeL8f/zHn7W3FJ0qCP2Tm6Nn1ZgxYfL+32qAwTOMj0mEmV1aek2DX/Spxl8mmk1VDawfKp1+/fVXHW+CCQ6tj6/kFmnvc+zYMR11Qn7aATmavC1AjjVw794jcTUKtIMHxf0tyQC01wLMtMLtzmC+ffux3HvHFdDR0R27oqJOqGv21uNpfIHZ1YC9XJvHEcGjSyNdHletStH8Gv2oaNs6cuQS7SCJNk1NvawhfVeL2HBtGMfjPXsOV/OZPlI8hxkNZc7VJC5R83b0oyIlMHDgTB1QTRdKfBB37ewEwG7ffqJtehYsWCBafpq20KWSBjCxACj1rvjRlMiRwiLqvXfvXtXiFLwDcr6H5kcpHddwLXQ/Su5gD6HJ/e1JxcGANbB163ZxT5aaJUs2yYGSKe/9wLhH6j2bE/iK8L85+t+y1J8Fc1Oprq7Ryi5A3fGr3JSXV779eJo3paa42Zi4sHPncZ0mT58pTG1uBvo/bdyYo0Et+kHBPeU5onUUXRPMQgvzvtDd6BpJ43b8NUx1xrMkJFzWaCCmNn2qSLJv21ag2jov73mTv6chNfVINSkApRkcJjbRbDSzZyTbmesLMPGnAR0VNWhntDQmOaY5mp73YUFCoREg0XFa16D1IfJzQAByT38cXz0mJkbNfA4GaKX5+ZBWNov7sFM+n7saECGoR4qPJvIEDl0k/qapPq7js3TN+fUk99cov5cIq8Pz9ZYifBPYLZhd4qpuC47VUmkVacQZSeKK7Lk78q5oX4ND37h3lRPha+hPVVN/nXtAwHXD1pmGUSs1r0nrvlNTDgMMgKGV6URBIAwwUcAOaJvfSNfoUExsrue9CKLhZ8Meo1skoOaQQIujzWkHy1Bvd38cogr9oDHlKcfj0Kircw1Fu3v3jv59O3akCPAqNF5A10vG0xAcnDJlnUb7XfS+V68/02o5WPJMeHiyvOa5PFdX34eLxns8xwG4ZEmcNtpzvbbG7XOta/R5WzB3TWkGzPe8RvX8jdT5ep2/1/qK+LkvIo/uYAaQgAptelLuakAI8Jjh29rpCM5wMzQwIAesmPBoaEaLooHx0x1/nAOEwWf8bk+rgPfidatXbxAglmnfbCZCbN2aLRp7v3nvve+0fS1amlw7s5uys+8p9Q/3JSOjTH7fWQUwVgztcj/99Bc5YA5rZ05G0ND6FpcEyyYvr1JzodALIyJyZE/v1Jv4FsxdS95YNUWzdNq6BvPKzn4mJntRo0ILAIS2RIvSaeL06dMKbjQrPnNbiGOqO/44PjUBtCtXrqgpvnDhQjXbvcm9e3fNsmWrxf24YWbM2Pp6PE2M9seGpI8GJi1H3IDI//TpETrGhuDgypUpGl8gZUe2gOj/H/7wD6UIkkHgQPjhhzHaRJ/XrliRIlp/tvn668Ead6Dih3lVnhragrnziw8w1wpISgUkJzSyFhPT8dE9X4u0FDOM7tx53Oh/QHvi89LsDZ8Yc5ef8YXxdwOViuJ9+X1oaSyDpsGyOnPp0kUB2TrVsoCZqRLffjvE/Nd/vatBQkg2f/rTR0qyoeKGxvLMdRo1Kkw0brZygEkP/t//fSKHxh4FNXW0Dq0QEv+BA6U64aJXr4n6PNTBiIhcBThRdc9AmwVz5xevYOY+f/z4uQKkMyyGUhOJdBfMWTQyZi9fARVBLnxcQE0HikCxwxzLgL5j+NDOwcFX2trExv5qdu+OFr/3wesyutkCsHNKvEGDrlp1QID6qWpRGHNE/yHSkJcnwk/aDnD/+c+fCZj3ai5+69ajqskBc58+E+X3n5HXhSuY8cmhDcK6g6iTmlpmwdwF5Y09wDo6mve2kT8CT8z5de82ApgIjGF2k3oKxCwjQAuISXPRf4pINvzwy5cvaUE8v7uo6LIpLn6uKbzx41eJ71+hKStSc8xzYuojvjSsOkbBAFqGtI0bt0o1Lde9/35P1bhMjJw6dZOa3/jbPD9o0EzN5WOyjxq1RA6Wk8oBYAY0frMFc9eTLt3QD3EqqdyHxBHEouEbI1DwbwMxAxhAl5WVac6a4o8lS5ab5ctXm+3bd8shckkA7ipAIWBFag7SPj+jNQlYwVenXA5SPqlAfsY85ispQGYiMz6Gbiuk8WJizmt6j1ExMOVI+6GJSXWRIgSsjKWB7O9qJWvB3NWky4PZc3yrY/KikckpA2jyyqSh2lqcUStXrlwTM/eAAOmCaMRK+Xvcx8zUNQpGuaL8dfXpPyc91zgF2PC4e+rJqSxzfW0g+LuPtfFVfWbBbLQpJIUm0G+DddHA0pd0eTAjTvcRfFin+wiCbwvASSWRXmrroeuOcIM0jKfxLx3XGmK/v+k8b4seVd0dzMReEhOL9HOgwi2YFvcPs7cLCi757D3eLcCMOH3ByDejLR1Bc5MzdhE5dih9s60rq54+rdIb5MCBB2LqVgXlgqFHZVd3BjOFFjAUDx58JK7NEzl8g2fx9+BGHTjge2RNtwEz0WwCXpjbFGG4p6b4Ho1N4QWAR1u3ZTMDBscxDGzv3kJN8wXj2revUNyA1s+C6gpy61a5iY4+rQ393obnHpjlGlkDmavbgxlBIxNNJtfsjTxCfhj/mXTWcfkE32bsq7u8elVnHj2qVDMumNejR8/afHxMZxH2+uzZq2Kh5WnrW4cu2/EgblgWzB5CyghONdxpb2kpAE/JJIExCiQAeFtKR6fw2orU31UElwoSESnMNWvWa3VbePgOMbcLTG7u00aA9qe6rbnVXMGLBXMLhM1jJCjaF7qlNyYYATNMcq6hUgo2mZWuJ+w99FvGwhIcPXnyhJKJMjMzzKpVNMePNwUFT+szBrS1InWYnn5HK9gaMgSNAeotwOhkLqj8Q/NT3eatw8ibgG7B7EXQvjQr2LNnj0+gwg47f/68bjTXUT0VyG4kVtpfIBBRXUdNO9/X1r56XTlXLaA+L4d5hImNPaoddtLSbikb76efxmh/7LAwGmW4Gk0cO/bSNK4AdFW6ORV/pA2pZKOxBoUxtM1yXuv0CXOBuOaN5r0Fsw8BnKSkaMHra66UY4JFRkZqlxKaH/jbmMBK8AtZDO4B9tVTOPBxs9av322ysh5oE/sffhhpduwoMKGh+5Q3Hxd34XXHzUytuacclTE1GzfmiiuXKaZ6sVaz0c0TwCckXFS2HxVwNPlISrqhlWxUtDG6hm6edP+EHOQN0BbMPgRQMuYTaqW3zXSEk5pOIzC52HhmFAWCAmol8MLhzN7RUII9pYPrypUrVSt7CvsO2Wj58s2y96XKhw8LizNFRTWiVV8IsG5r5JtG+FBr6Vg7b94u7cLzj3/8qBVq777bw/z44zil5AJuJl9AvaUbD8UyTLz4y18+V549Wp9OPVBweY8jR5pqaAvmNwgRTMfMYnPfJFBAoYSS2qIRATeEleAVT+BiiVFHTnCTjAb156GhoWbx4sXm+vXrTV6PtYbVtm7dLgUzfPfVq1PlMAdYtUqrjY4+p/XoFLQAUnjv9JOfOXOLXHtAm93v3HlCefb0xPvznz/XMTeAmxp0QEvxTFraTT0o4N7Ti56SWAbMWTC3UDCj0c40EmhujCs3B0Am0s3MX28nupX2Fwe4cOx9AZc9piwVl4khCcxo5hoCX7AD3fn5WG0ExiiUSU09LCbxbdHAi7XsND39ppjU+doVhnJVylOZ/Pjdd8O0xnzkyFD1p7dsOaLlq3FxF1V7U832979/o3XqjKqhnHXSpDXaHy8l5YJqa9eguSnms89ClJFnwdxCYeMAKJvNBjYnkEm4Cbge0ztQFFAr3oX9wp8FfAQvOYxxfej44gDX6b7qABfOAP4xQHf6tfE+LAhE7CWAJrtBcQxR7e3bt8nro8z58481ABYZeUKbPqChv/pqoPZ7pxstZado3W++GaJaF3OZ4Q3Ul48eHaYTXHhs0aJ9ak7TuXbAgNlmzpxdWgm3ZEmMHBhXtF+803ee30NxTdMpFxbMzQomNBFr+Nn+aFv3kxsCCmbamyigBMEhyUOVDNbF3xds0Xp/gOupcQGu01HVGXzA+/j638hakI6iVHXlylVidi+Tr+tNfHyqKS19qGa107uOtNTWrUcU2NnZj0UJVKnmBbhUutGZh1Zb0C8ZsUQgix7YPMaEFwJkvDY6+qxYDc80RZWR8VAr5ujhRoUcDTJTUm54nd5iweynAEjHH/aHysnNwWxfDgFKLOk75qvZAYUWtGGC+xwXVxJ0i78rLa1EAd1R4gxC9wQu5B5fwIUvgMblen+A60tc1W3PTXHxefk9tEK+a4qKqrVPvCfhw9VYsiFH7KpIcyrYGualNTSn9Mw519Y3p2yaY65tNPrGRrNbKQCR2mbYYdwg/gqanIF13Gj4Ye5FHI7Ad46NLZTT945OtQi2lZZ2V6ySk9pdpj3EU+PSp83RuLguzjQSb8D1V+O2RuBmM1DhyJFaDwA238iyJZVwra10o4W1BbOfws1FWyEIJS3p5ElUnBuRwBhBF08KKBovIaFEmw+2pCyxvRYmH6NpAgFmd+DCh3cH7ps0LpZSIIHrTRjpSnPIzMwKk5v7PMhWpU6OxMKzYPZDuFnwt5xCi5b0CCMSzk2IqQ7P151ZBpjj4oq0jM19WmCwLGfO1NuC2R/gvik41Z7A9SZMs4iNPSGHebF8LQm6xWC/w4fP+xxZY8HsIQDYaWDPzdjS1+I7Y6pTTukMqCsqKjErVkSa9euTtdwwJ6fceI6naeyXefeZPLm73q57E7/XV3FAa8AM4AAf/5+/wG0PU/ltBI3HSJiHD58G7cJl8/VxWTB7EW5QotT02W5p1RSBHExEbmB8P4JjkyZNMv3799c1fPhoExq6yaSmXlctTT7x0KF79TW0MH+YaEFPcAeADSCs0cFzLrDWaXSUMUDOyBquI8KalfXYHDtW2+hg4P2zssr1a0vB7Ghcf4DL59aRpnJ3FgtmL8INB8UTk5mgVkv52E4zP6ZahISEmD59+ph+/UL0+5CQvvJ9P7N4cYQA+ZE2qSdXSYqDsTNRUSXaOnfXrkKNbB49WqWkfcj79NNmkgWALih4bmbN2qY5TddkSa59oamN8PAkrc4hugr1EEBzQEBWYN6Xp+ZuGOf6Qsfo4DL4Yyq7A9dd42KhWOC2v1gw+xA0CTcwVVMwiloi3MQQEKZMmfIayP0aLQA9evQkk57uqsT553/+f2bevEidPTV58hrzL//y72bVqlSxDC4qpxfyfUrKdWUgwRSC/rd7d5FyfSEuZGU90kF+vIYxuFAJeYwOnoysgXZIAUCPHoP10GjaZveZ+IlF5vLlG+ISFOvwPXLuFJfgMmBdkIclFuCpcS1wg0csmN8gRLS90f2aE25uotrDhg0zffv29QHmiVpWB7eXhvdU4SQmXtAxt3/965c65pYm+DTI//zzfmbq1I36HHxfANujx1BlIwFQCP4ffviTPDdQZ2UPHbpQNH6S+eKLELlmtGp+AA67KC7uchMwEymNjj4h2jnJzJgxQ37vCP0KgAlQAV66lxK1b+v+aFbaTiyY3yBoG9hBmNs0K/DX3HbAPHTo0DeAeYKYvDe1wT3VMlTdzJmzU/m933wzzISFJShhn+oa5k9BFZw2baP43+vUvGY0DUR9qIVoa8BMn23qZXv3nqyHw7vvfiO/Z6n55JNfdCIGBwBD5bxp5tjYIrEmrunETGfaJVqZnmjOUHpcDphv9EvDf8aPtuAOHrFgbkYwtzE7MTXxg/0RDgEaG0yePNn88ssvTcDct28fM2bMZDWX0cyQ7uH6Aj4AC0cX8H388c9K3GdkDRU51NSirWfM2KKk/alT1+tkSB53mdCXtbaW18P1/fjjXnJthI60Wbo0Xt+Hede+p1m4wInpDFABLdxl6noBNAE994H0uCHw1PGrScVRoeQaX2tN7o4QC2Y/BJYX/iPBHn9LH+F7Y6YOGTJE/Wa0MQsg9+s3wCxaRB+y+1r6xgTHFStS1YSmUJ0C9oUL96kZPXDgLNW+gHbp0gTzww9jxQ9Oez1UbrJW4zD5kVI6SAXMnGK8DXOfeX1IyFQzePBcHQ87ePA8HW7vDcy+otnug+nRxsQPsFLwn4nYEwiD9IE7AhOOGmEOMtJymOZ8DoGa6WWlsVgw+yHOzGfMbQrW/TUt4W4T8Z0+fYZo3/Fm7NgpArTpAuQIs3//FSXvk0YivcRYGSLNEPOplQVgEO6jooq18gYqH2R9ultA5OdnIt/JydflNVXK24Wcj//LyBva0vB6ul0wW4rnnGveNs/saG8ATiCMCZtw2ol203/cYXRRJ06pqGOeU2FGHMKa54ERC2Y/BXObGxNzG63jj3AIEDS6epXWQ9kmIeGSAPWOAPeppo3c88iki+gT5U4GcUbR8HjDY+5k/rp6Leu81p2EwmPermlrBpj7rGo0MaCl9zgDBwA0GQEATloL8xxSDuY5xRSkvxzzvKMFZpWLNEJDg6ftvJ69dc9yC+YWCFqIG5Le2ty0/kplZbUA+ZTcxJV+jZbpCtxsNK+7eQ5w0dC4KpjnBNdow+Sww4LBPL9zBzrnSf0sOoKqmZt77q36llswt0C4Qc+cOaPmNprFX1OR8TTkcbt71ZS7eU7ADGIOHV4obCEmAbjR4gTbCDoyrN7TPA9kcI3xNFFRheL2PJEDrrJdV1LSTXGzfI+e8UcsmFso3IgMUufmwyf2RxrqmYtMfHxJ0C3SUqmpJXrotKcATADubp6fPn1a02DUibub5/jjmOc8HyjzvKyMEsgz2tO6va0n4hxpab4rovwRC+ZWCDcSvjM+tD8jbFDg+EP4Y8G6Kipe6EjTjhZ38xxtTNoL1hmRcsc8ZzmMNPLinuZ5a+i3/K7CwlI5QDIEVLfrabDtVblGNxIL5g4QbjjMbMxtzG6bVw2sOOY59FEOUqiykHIcyqk385xSVjS9Q27xtUcAn/eLjY2T/VxnFi9ebsLDt5rt2zO1X7bDYwfY7gFE52fPqjcL5k4oaA4CN6RibFO/9hXHPAfgaGLcHYpBsJRoLuGY5+wNbDaAj3lOjtwht/Ba3gOGH4cBBwHpx5s3r4tWzhftv1HeY5/49E+0R9fBg/fFFL5bnzGg2g0NTrrQNWjOdzlr0+o3C+agExhS3DhoA2/tgqy0n7inxyD5wCc/JghjVhiEFvLeLMBONoLn0ODQVvHHORQc7Q3I0ewREZtEY+cLcO9rp81evSbKwVCh1WmhoTHasJ6JFOHhKfLYK+UNNMygqtNRM07JKtVvjKfxBWgL5g4WNh0SibeZz1Y6Xhz/2zHP0cIE0Rh8QFBtyZIlZtGiRV6bUPAaNPqGDbtEI98wX301wPzrv/6X+OonRBPf0kb1//mf7ygXft26QyYz86HZuBFgJ5u9e0+LC3DeLF+epEw8KtX4nue8MfAsmINE2HSqqjj9vc18thI84m6eY2oznqj58TSbRJNfN7/8MtH87W9fKy+e9NUHH3xvPvmkt5k9e6cZNGiuFsb07DncjBy5SLnw0G+ZYMH3UHIZNgdnnmtzcp546YltwRwUgs+GCUdBgp1D1XkEUxp/GTqqp7CP7GdExG6TmnpVa8eZOMEUyGnTNgkwJyhPnkIZKt7gvc+YsUFM6wrR+vkC5qVm1KhQMeOPahHM3r2nTGTkcdXoMTGlTdh4FsxBIpz2+F9UFJEmseZ25xBnpCvBLwJjzr7hdxMMIx6SkXHMHDp0VedFMeiN2vCPPvpZy1UpPZ0+fbOOphk+PFTAu1iZXDNnbtYqOL7Surdnz5FaDEONOZMvEhKa1pRbMAeREAAjkEL+0w5n7xwCeNHK1GwD6pKSYnPx4gWTl3dYtOtmAXmsuXSJNsp31LymwQOzlZkhFRlZaMaMWWaWLo01EyeuFeDnmV69JpgBA2aqFqfmfNmyOJOb+9DMnbvzdQXbNH2cIhjP1k0WzEEmt2/fVrONwIk7MwkyRnn5MzHHK8y9e086zeLvpQAgGMgkgRICZATAoJSuXr3WLFgQJl83m+TkTLGyKsRvNhqpZvYTFWksUlEFBdWisR9qkQqNFY8erRbf+qZo4nNa1QbfPTv7qYI2L69S3v+8iY09rxVu3rqnWjAHmXBjwFZyZj47Zht0zpSUEjnpCzu893LLyP+FclMXdejYmvYSTOuzZ6+Kj5sngC0XELuq1cgfu1eyeeaOveWS3a91zzf7aqFswRykAr0TZhLmtjPz2TWepkg26745fPhFp1np6Q90DlVFRfuMrelocXGzTys3u70r1yw3O0gFphHmNrOrXC14arQEkuoYhwLYGRamIu2EuguYb916JIdwoQDroU4fab/12MTHX7VVU8EomNswjCgIICp66dJVs3XrAdHO58SEe2ycaYHtReJv7cLn605gvn+/wiQlFelcsMTE9l3x8UXih1+09czBKJjbFAEsW7ZMQB1hwsJWmuXLqfiJFf/5svJ9Pfm7/qzWEvs9ta4/79XdwAyQKAOlgqwj1vPnL32OnvFHLJgDJBRfkKdk0QDvzp3bqqX37t0joI4Q/+iKcnkh6kPiB9yeQRIHbA1avE65wYmJ1zWa6nmNJ1DdAy+YcvQagx/McvGFa5ReyHPO7KvuDObOLhbMARDSUmlpaVq1AzusgURSp830o6NpWxsjgCzXiRXTprlG1TCCJi/vmRL0nR5f7j+fOPFKucCQFzDXGQYOkT8/v/K1hq19vYjC1rwGaI28x2OdirF+fbbZuDFXv2fkTVraHTNq1BLlEjsDxC2YO69YMAdAqKGFiOBrTtWlSxfNihXrzKFDZWbRomgTEjJF+b6QEhYs2KMjZyDuM4ImLCxeyfo5OY+1IeDYseE6M4pxNVyzenWaWbIkVgB5RkGZkHBFA1fbth3TVjTMslq0aK+Y+4k6CYOpGPCMk5Iui4WQaAYOnCMHS75XIoMFc+cSC+YACB0vVq1apUXv3qid9+7dFZCuEs143YSG/qoN7mfM2Gref7+nfD/NfPJJLwUpnF9GyvTtO020/HHtlQ0dsEePQWbYsEVKJfzxx7Fm5MjFZtKkNTrhYvHiGAHqDbl2kgA42fzxjx8KeCdp72wOgu+/H6Uja3jtxx/3VkriF18MMHv2lMjhU2vB3InFgjkAginN1Aea1Xl2mATcdClZvXqDaNbbqlUh8GM6A7jU1Avy81Qzf36U0gYZV4MpjIb+3e/+qpMqIPXDD/788xCdVIGZHRn5mw6W43X4wXCIlyz51Xz2WYgyj2bO3KbN9SdOXCMHx2YB+GTz4Yc/KsCZfLFiRbJxTZu0YO6sYsEcAAHAUDoxtamhdaidmNxlZbfMzp07BGCMQi0XTbpPQDtVR8yMGRNm0tOvCVjnmIUL95jZs7cLAFeY99771gwdukAHyg0btlBH14wevax+jA0zpriWayi5o1j+/fe/V62PJk5JuaZzq8aPX2kmTFit1/XvP1MOg77ir6/Xn2moT0DOgrnzigVzgMSpyKEIHvIITeGPHz9mdu2KFH92uzl9+o4pKqrW2VAMhwsLSxR/OcpkZNxRYK5Zc0g1KUAD3ASteJwhcwDR5Utn6UEQEsIcqvVamYPZDOGfUr2IiFwFMBMtADhWAEXymO1odDT/gAGz1DxPSyuzPnMnFwvmAAodH6mJ3bRpsxL4ly2LEIDvN2fO0FLWlQpiLE1WVoV8rdTAFaR+yPsQ8l0D3S4pbxeteeRItZbPJSUxrbFGI9epqbf0sfz8F5rewsROTLyqxQB5eS+U9H/kyCt9f4oE8vKqRFPf1J9JidEFg/SYM2HDgrnzigVzgAUf+f79R2bPnnzVkIWFtZpS8iSBeCPwexL0We6jarjW82dPsr/znu55aPfn3tRozoK5c4kFczsIVVPOeJqO5ltbbnbXFQvmdhCqpqg+Iu976FB5p1kpKbd0bI0Fc+cQC+Z2kOfPq8V3PaeE+uTkU51mJSWViO99Vi0LK8EvFsztIPBGXrx4KaCo6nSLv9u2NOscYsFsxUoXEQtmK1a6iFgwW7HSRcSC2YqVLiIWzFasdBH5//dhlITpR8x3AAAAAElFTkSuQmCC;" parent="1" vertex="1">
          <mxGeometry x="30" y="280" width="309.86" height="190" as="geometry" />
        </mxCell>
        <mxCell id="IkM95aY9ZOoL_im3c5KC-3" value="" style="endArrow=classic;html=1;rounded=0;entryX=0;entryY=0.5;entryDx=0;entryDy=0;fillColor=#f8cecc;strokeColor=#b85450;strokeWidth=3;" parent="1" target="YQOzpw63EG1Gb3oN7JPL-26" edge="1">
          <mxGeometry width="50" height="50" relative="1" as="geometry">
            <mxPoint x="200" y="380" as="sourcePoint" />
            <mxPoint x="250" y="330" as="targetPoint" />
          </mxGeometry>
        </mxCell>
        <mxCell id="IkM95aY9ZOoL_im3c5KC-4" value="" style="endArrow=classic;html=1;rounded=0;fillColor=#f8cecc;strokeColor=#b85450;strokeWidth=3;" parent="1" edge="1">
          <mxGeometry width="50" height="50" relative="1" as="geometry">
            <mxPoint x="690" y="225" as="sourcePoint" />
            <mxPoint x="950" y="270" as="targetPoint" />
            <Array as="points">
              <mxPoint x="820" y="210" />
              <mxPoint x="900" y="230" />
            </Array>
          </mxGeometry>
        </mxCell>
        <mxCell id="IkM95aY9ZOoL_im3c5KC-5" value="" style="endArrow=classic;html=1;rounded=0;entryX=0;entryY=0.5;entryDx=0;entryDy=0;fillColor=#f8cecc;strokeColor=#b85450;strokeWidth=3;" parent="1" target="YQOzpw63EG1Gb3oN7JPL-30" edge="1">
          <mxGeometry width="50" height="50" relative="1" as="geometry">
            <mxPoint x="330" y="335" as="sourcePoint" />
            <mxPoint x="490" y="180" as="targetPoint" />
          </mxGeometry>
        </mxCell>
        <mxCell id="IkM95aY9ZOoL_im3c5KC-6" value="" style="endArrow=classic;html=1;rounded=0;fillColor=#f8cecc;strokeColor=#b85450;strokeWidth=3;entryX=0.502;entryY=0.685;entryDx=0;entryDy=0;entryPerimeter=0;" parent="1" edge="1">
          <mxGeometry width="50" height="50" relative="1" as="geometry">
            <mxPoint x="686" y="505" as="sourcePoint" />
            <mxPoint x="939.8760000000002" y="520.175" as="targetPoint" />
            <Array as="points">
              <mxPoint x="810" y="530" />
            </Array>
          </mxGeometry>
        </mxCell>
        <mxCell id="IkM95aY9ZOoL_im3c5KC-7" value="" style="endArrow=classic;html=1;rounded=0;fillColor=#f8cecc;strokeColor=#b85450;strokeWidth=3;entryX=0.457;entryY=0.847;entryDx=0;entryDy=0;entryPerimeter=0;" parent="1" edge="1">
          <mxGeometry width="50" height="50" relative="1" as="geometry">
            <mxPoint x="800" y="530" as="sourcePoint" />
            <mxPoint x="920.1660000000002" y="610.085" as="targetPoint" />
          </mxGeometry>
        </mxCell>
      </root>
    </mxGraphModel>
  </diagram>
</mxfile>
